<?xml version="1.0" encoding="UTF-8" standalone="no"?>
<!DOCTYPE svg PUBLIC "-//W3C//DTD SVG 1.1//EN"
 "http://www.w3.org/Graphics/SVG/1.1/DTD/svg11.dtd">
<!-- Generated by graphviz version 2.26.3 (20100126.1600)
 -->
<!-- Title: G Pages: 1 -->
<svg width="1234pt" height="88pt"
 viewBox="0.00 0.00 1234.00 88.00" xmlns="http://www.w3.org/2000/svg" xmlns:xlink="http://www.w3.org/1999/xlink">
<g id="graph1" class="graph" transform="scale(1 1) rotate(0) translate(4 84)">
<title>G</title>
<polygon fill="white" stroke="white" points="-4,5 -4,-84 1231,-84 1231,5 -4,5"/>
<!-- Node1 -->
<g id="node1" class="node"><title>Node1</title>
<polygon fill="#bfbfbf" stroke="black" points="351.5,-58.5 351.5,-79.5 524.5,-79.5 524.5,-58.5 351.5,-58.5"/>
<text text-anchor="middle" x="438" y="-66.5" font-family="Helvetica,sans-Serif" font-size="10.00">test/build_dataset/build_dataset.cpp</text>
</g>
<!-- Node2 -->
<g id="node3" class="node"><title>Node2</title>
<polygon fill="white" stroke="#bfbfbf" points="0,-0.5 0,-21.5 54,-21.5 54,-0.5 0,-0.5"/>
<text text-anchor="middle" x="27" y="-8.5" font-family="Helvetica,sans-Serif" font-size="10.00">iostream</text>
</g>
<!-- Node1&#45;&gt;Node2 -->
<g id="edge2" class="edge"><title>Node1&#45;&gt;Node2</title>
<path fill="none" stroke="midnightblue" d="M351.282,-62.3889C277.208,-55.7654 167.785,-43.6705 64.377,-22.0247"/>
<polygon fill="midnightblue" stroke="midnightblue" points="64.8993,-18.5576 54.3899,-19.9 63.4426,-25.4044 64.8993,-18.5576"/>
</g>
<!-- Node3 -->
<g id="node5" class="node"><title>Node3</title>
<polygon fill="white" stroke="#bfbfbf" points="72,-0.5 72,-21.5 140,-21.5 140,-0.5 72,-0.5"/>
<text text-anchor="middle" x="106" y="-8.5" font-family="Helvetica,sans-Serif" font-size="10.00">sys/types.h</text>
</g>
<!-- Node1&#45;&gt;Node3 -->
<g id="edge4" class="edge"><title>Node1&#45;&gt;Node3</title>
<path fill="none" stroke="midnightblue" d="M361.598,-58.4739C305.536,-50.3107 227.38,-38.0194 150.111,-22.1048"/>
<polygon fill="midnightblue" stroke="midnightblue" points="150.707,-18.6538 140.203,-20.0429 149.28,-25.507 150.707,-18.6538"/>
</g>
<!-- Node4 -->
<g id="node7" class="node"><title>Node4</title>
<polygon fill="white" stroke="#bfbfbf" points="157.5,-0.5 157.5,-21.5 206.5,-21.5 206.5,-0.5 157.5,-0.5"/>
<text text-anchor="middle" x="182" y="-8.5" font-family="Helvetica,sans-Serif" font-size="10.00">dirent.h</text>
</g>
<!-- Node1&#45;&gt;Node4 -->
<g id="edge6" class="edge"><title>Node1&#45;&gt;Node4</title>
<path fill="none" stroke="midnightblue" d="M378.874,-58.4436C336.058,-50.3651 276.655,-38.2672 216.776,-22.2978"/>
<polygon fill="midnightblue" stroke="midnightblue" points="217.341,-18.8249 206.774,-19.5948 215.514,-25.5825 217.341,-18.8249"/>
</g>
<!-- Node5 -->
<g id="node9" class="node"><title>Node5</title>
<polygon fill="white" stroke="#bfbfbf" points="223.5,-0.5 223.5,-21.5 270.5,-21.5 270.5,-0.5 223.5,-0.5"/>
<text text-anchor="middle" x="247" y="-8.5" font-family="Helvetica,sans-Serif" font-size="10.00">errno.h</text>
</g>
<!-- Node1&#45;&gt;Node5 -->
<g id="edge8" class="edge"><title>Node1&#45;&gt;Node5</title>
<path fill="none" stroke="midnightblue" d="M400.593,-58.4421C370.365,-49.7991 326.51,-37.0104 280.306,-22.3427"/>
<polygon fill="midnightblue" stroke="midnightblue" points="281.318,-18.9917 270.727,-19.2852 279.189,-25.6602 281.318,-18.9917"/>
</g>
<!-- Node6 -->
<g id="node11" class="node"><title>Node6</title>
<polygon fill="white" stroke="#bfbfbf" points="288,-0.5 288,-21.5 338,-21.5 338,-0.5 288,-0.5"/>
<text text-anchor="middle" x="313" y="-8.5" font-family="Helvetica,sans-Serif" font-size="10.00">fstream</text>
</g>
<!-- Node1&#45;&gt;Node6 -->
<g id="edge10" class="edge"><title>Node1&#45;&gt;Node6</title>
<path fill="none" stroke="midnightblue" d="M415.363,-58.4966C395.752,-49.397 367.154,-36.1273 345.167,-25.9253"/>
<polygon fill="midnightblue" stroke="midnightblue" points="346.435,-22.6554 335.891,-21.6212 343.488,-29.0051 346.435,-22.6554"/>
</g>
<!-- Node7 -->
<g id="node13" class="node"><title>Node7</title>
<polygon fill="white" stroke="#bfbfbf" points="356,-0.5 356,-21.5 400,-21.5 400,-0.5 356,-0.5"/>
<text text-anchor="middle" x="378" y="-8.5" font-family="Helvetica,sans-Serif" font-size="10.00">vector</text>
</g>
<!-- Node1&#45;&gt;Node7 -->
<g id="edge12" class="edge"><title>Node1&#45;&gt;Node7</title>
<path fill="none" stroke="midnightblue" d="M426.995,-58.3619C418.453,-50.1043 406.42,-38.4725 396.417,-28.8029"/>
<polygon fill="midnightblue" stroke="midnightblue" points="398.558,-26.0044 388.935,-21.5707 393.692,-31.0374 398.558,-26.0044"/>
</g>
<!-- Node8 -->
<g id="node15" class="node"><title>Node8</title>
<polygon fill="white" stroke="#bfbfbf" points="417.5,-0.5 417.5,-21.5 458.5,-21.5 458.5,-0.5 417.5,-0.5"/>
<text text-anchor="middle" x="438" y="-8.5" font-family="Helvetica,sans-Serif" font-size="10.00">string</text>
</g>
<!-- Node1&#45;&gt;Node8 -->
<g id="edge14" class="edge"><title>Node1&#45;&gt;Node8</title>
<path fill="none" stroke="midnightblue" d="M438,-58.3619C438,-50.9219 438,-40.7427 438,-31.7276"/>
<polygon fill="midnightblue" stroke="midnightblue" points="441.5,-31.5706 438,-21.5707 434.5,-31.5707 441.5,-31.5706"/>
</g>
<!-- Node9 -->
<g id="node17" class="node"><title>Node9</title>
<polygon fill="white" stroke="#bfbfbf" points="475.5,-0.5 475.5,-21.5 510.5,-21.5 510.5,-0.5 475.5,-0.5"/>
<text text-anchor="middle" x="493" y="-8.5" font-family="Helvetica,sans-Serif" font-size="10.00">map</text>
</g>
<!-- Node1&#45;&gt;Node9 -->
<g id="edge16" class="edge"><title>Node1&#45;&gt;Node9</title>
<path fill="none" stroke="midnightblue" d="M448.088,-58.3619C455.841,-50.1861 466.73,-38.7025 475.845,-29.0907"/>
<polygon fill="midnightblue" stroke="midnightblue" points="478.635,-31.2352 482.976,-21.5707 473.555,-26.4186 478.635,-31.2352"/>
</g>
<!-- Node10 -->
<g id="node19" class="node"><title>Node10</title>
<polygon fill="white" stroke="#bfbfbf" points="528,-0.5 528,-21.5 632,-21.5 632,-0.5 528,-0.5"/>
<text text-anchor="middle" x="580" y="-8.5" font-family="Helvetica,sans-Serif" font-size="10.00">eigen3/Eigen/Dense</text>
</g>
<!-- Node1&#45;&gt;Node10 -->
<g id="edge18" class="edge"><title>Node1&#45;&gt;Node10</title>
<path fill="none" stroke="midnightblue" d="M463.715,-58.4966C486.293,-49.2746 519.358,-35.7695 544.463,-25.5153"/>
<polygon fill="midnightblue" stroke="midnightblue" points="546.062,-28.6427 553.996,-21.6212 543.415,-22.1624 546.062,-28.6427"/>
</g>
<!-- Node11 -->
<g id="node21" class="node"><title>Node11</title>
<polygon fill="white" stroke="#bfbfbf" points="650,-0.5 650,-21.5 766,-21.5 766,-0.5 650,-0.5"/>
<text text-anchor="middle" x="708" y="-8.5" font-family="Helvetica,sans-Serif" font-size="10.00">opencv2/core/core.hpp</text>
</g>
<!-- Node1&#45;&gt;Node11 -->
<g id="edge20" class="edge"><title>Node1&#45;&gt;Node11</title>
<path fill="none" stroke="midnightblue" d="M486.895,-58.4966C532.437,-48.7136 600.416,-34.1107 648.964,-23.6819"/>
<polygon fill="midnightblue" stroke="midnightblue" points="649.971,-27.0453 659.013,-21.5231 648.501,-20.2014 649.971,-27.0453"/>
</g>
<!-- Node12 -->
<g id="node23" class="node"><title>Node12</title>
<polygon fill="white" stroke="#bfbfbf" points="784,-0.5 784,-21.5 924,-21.5 924,-0.5 784,-0.5"/>
<text text-anchor="middle" x="854" y="-8.5" font-family="Helvetica,sans-Serif" font-size="10.00">opencv2/highgui/highgui.hpp</text>
</g>
<!-- Node1&#45;&gt;Node12 -->
<g id="edge22" class="edge"><title>Node1&#45;&gt;Node12</title>
<path fill="none" stroke="midnightblue" d="M513.334,-58.4966C586.945,-48.2337 698.6,-32.6664 773.825,-22.1783"/>
<polygon fill="midnightblue" stroke="midnightblue" points="774.309,-25.6447 783.73,-20.7973 773.342,-18.7117 774.309,-25.6447"/>
</g>
<!-- Node13 -->
<g id="node25" class="node"><title>Node13</title>
<polygon fill="white" stroke="#bfbfbf" points="941.5,-0.5 941.5,-21.5 1088.5,-21.5 1088.5,-0.5 941.5,-0.5"/>
<text text-anchor="middle" x="1015" y="-8.5" font-family="Helvetica,sans-Serif" font-size="10.00">opencv2/imgproc/imgproc.hpp</text>
</g>
<!-- Node1&#45;&gt;Node13 -->
<g id="edge24" class="edge"><title>Node1&#45;&gt;Node13</title>
<path fill="none" stroke="midnightblue" d="M524.842,-61.7783C621.543,-53.5043 782.761,-39.0197 931.059,-22.1925"/>
<polygon fill="midnightblue" stroke="midnightblue" points="931.721,-25.6398 941.26,-21.0289 930.927,-18.6849 931.721,-25.6398"/>
</g>
<!-- Node14 -->
<g id="node27" class="node"><title>Node14</title>
<polygon fill="white" stroke="#bfbfbf" points="1106,-0.5 1106,-21.5 1226,-21.5 1226,-0.5 1106,-0.5"/>
<text text-anchor="middle" x="1166" y="-8.5" font-family="Helvetica,sans-Serif" font-size="10.00">opencv2/core/eigen.hpp</text>
</g>
<!-- Node1&#45;&gt;Node14 -->
<g id="edge26" class="edge"><title>Node1&#45;&gt;Node14</title>
<path fill="none" stroke="midnightblue" d="M524.578,-65.2268C648.794,-59.2777 884.94,-45.9763 1095.81,-22.0547"/>
<polygon fill="midnightblue" stroke="midnightblue" points="1096.29,-25.5222 1105.83,-20.9075 1095.5,-18.5676 1096.29,-25.5222"/>
</g>
</g>
</svg>
