<?xml version="1.0" encoding="UTF-8" standalone="no"?>
<!DOCTYPE svg PUBLIC "-//W3C//DTD SVG 1.1//EN"
 "http://www.w3.org/Graphics/SVG/1.1/DTD/svg11.dtd">
<!-- Generated by graphviz version 2.26.3 (20100126.1600)
 -->
<!-- Title: G Pages: 1 -->
<svg width="348pt" height="110pt"
 viewBox="0.00 0.00 348.00 110.00" xmlns="http://www.w3.org/2000/svg" xmlns:xlink="http://www.w3.org/1999/xlink">
<g id="graph1" class="graph" transform="scale(1 1) rotate(0) translate(4 106)">
<title>G</title>
<polygon fill="white" stroke="white" points="-4,5 -4,-106 345,-106 345,5 -4,5"/>
<!-- Node1 -->
<g id="node1" class="node"><title>Node1</title>
<polygon fill="#bfbfbf" stroke="black" points="0.5,-40.5 0.5,-61.5 73.5,-61.5 73.5,-40.5 0.5,-40.5"/>
<text text-anchor="middle" x="37" y="-48.5" font-family="Helvetica,sans-Serif" font-size="10.00">buildDataSet</text>
</g>
<!-- Node2 -->
<g id="node3" class="node"><title>Node2</title>
<a xlink:href="build__dataset_8cpp.html#ad55cea6ce9e53c805e4fa88ffb179cec" target="_top" xlink:title="getNameListInFile">
<polygon fill="white" stroke="black" points="110,-80.5 110,-101.5 206,-101.5 206,-80.5 110,-80.5"/>
<text text-anchor="middle" x="158" y="-88.5" font-family="Helvetica,sans-Serif" font-size="10.00">getNameListInFile</text>
</a>
</g>
<!-- Node1&#45;&gt;Node2 -->
<g id="edge2" class="edge"><title>Node1&#45;&gt;Node2</title>
<path fill="none" stroke="midnightblue" d="M68.7913,-61.5095C83.2658,-66.2945 100.594,-72.0229 116.113,-77.1529"/>
<polygon fill="midnightblue" stroke="midnightblue" points="115.408,-80.6061 126.001,-80.4218 117.605,-73.9599 115.408,-80.6061"/>
</g>
<!-- Node3 -->
<g id="node5" class="node"><title>Node3</title>
<a xlink:href="build__dataset_8cpp.html#ac52bc11ce3cf73533b206f8afb6ae0d5" target="_top" xlink:title="buildImageSet">
<polygon fill="white" stroke="black" points="118.5,-40.5 118.5,-61.5 197.5,-61.5 197.5,-40.5 118.5,-40.5"/>
<text text-anchor="middle" x="158" y="-48.5" font-family="Helvetica,sans-Serif" font-size="10.00">buildImageSet</text>
</a>
</g>
<!-- Node1&#45;&gt;Node3 -->
<g id="edge4" class="edge"><title>Node1&#45;&gt;Node3</title>
<path fill="none" stroke="midnightblue" d="M73.6324,-51C84.3899,-51 96.3463,-51 107.796,-51"/>
<polygon fill="midnightblue" stroke="midnightblue" points="108.119,-54.5001 118.119,-51 108.119,-47.5001 108.119,-54.5001"/>
</g>
<!-- Node5 -->
<g id="node9" class="node"><title>Node5</title>
<a xlink:href="build__dataset_8cpp.html#a6524223e76c6cdcbb8abd8d231a2dae3" target="_top" xlink:title="buildRegionSet">
<polygon fill="white" stroke="black" points="116.5,-0.5 116.5,-21.5 199.5,-21.5 199.5,-0.5 116.5,-0.5"/>
<text text-anchor="middle" x="158" y="-8.5" font-family="Helvetica,sans-Serif" font-size="10.00">buildRegionSet</text>
</a>
</g>
<!-- Node1&#45;&gt;Node5 -->
<g id="edge8" class="edge"><title>Node1&#45;&gt;Node5</title>
<path fill="none" stroke="midnightblue" d="M68.7913,-40.4905C83.2658,-35.7055 100.594,-29.9771 116.113,-24.8471"/>
<polygon fill="midnightblue" stroke="midnightblue" points="117.605,-28.0401 126.001,-21.5782 115.408,-21.3939 117.605,-28.0401"/>
</g>
<!-- Node4 -->
<g id="node7" class="node"><title>Node4</title>
<a xlink:href="build__dataset_8cpp.html#aba3394f5f8d4e7581bc5ecbaaf0313b5" target="_top" xlink:title="buildImageSubset">
<polygon fill="white" stroke="black" points="243.5,-40.5 243.5,-61.5 338.5,-61.5 338.5,-40.5 243.5,-40.5"/>
<text text-anchor="middle" x="291" y="-48.5" font-family="Helvetica,sans-Serif" font-size="10.00">buildImageSubset</text>
</a>
</g>
<!-- Node3&#45;&gt;Node4 -->
<g id="edge6" class="edge"><title>Node3&#45;&gt;Node4</title>
<path fill="none" stroke="midnightblue" d="M197.544,-51C208.791,-51 221.275,-51 233.362,-51"/>
<polygon fill="midnightblue" stroke="midnightblue" points="233.386,-54.5001 243.386,-51 233.386,-47.5001 233.386,-54.5001"/>
</g>
<!-- Node6 -->
<g id="node11" class="node"><title>Node6</title>
<a xlink:href="build__dataset_8cpp.html#a46e72f416948302d7a240c2384e9869b" target="_top" xlink:title="buildRegionSubset">
<polygon fill="white" stroke="black" points="242,-0.5 242,-21.5 340,-21.5 340,-0.5 242,-0.5"/>
<text text-anchor="middle" x="291" y="-8.5" font-family="Helvetica,sans-Serif" font-size="10.00">buildRegionSubset</text>
</a>
</g>
<!-- Node5&#45;&gt;Node6 -->
<g id="edge10" class="edge"><title>Node5&#45;&gt;Node6</title>
<path fill="none" stroke="midnightblue" d="M199.717,-11C209.878,-11 220.939,-11 231.742,-11"/>
<polygon fill="midnightblue" stroke="midnightblue" points="231.983,-14.5001 241.983,-11 231.983,-7.5001 231.983,-14.5001"/>
</g>
</g>
</svg>
