<?xml version="1.0" encoding="UTF-8" standalone="no"?>
<!DOCTYPE svg PUBLIC "-//W3C//DTD SVG 1.1//EN"
 "http://www.w3.org/Graphics/SVG/1.1/DTD/svg11.dtd">
<!-- Generated by graphviz version 2.26.3 (20100126.1600)
 -->
<!-- Title: G Pages: 1 -->
<svg width="244pt" height="70pt"
 viewBox="0.00 0.00 244.00 70.00" xmlns="http://www.w3.org/2000/svg" xmlns:xlink="http://www.w3.org/1999/xlink">
<g id="graph1" class="graph" transform="scale(1 1) rotate(0) translate(4 66)">
<title>G</title>
<polygon fill="white" stroke="white" points="-4,5 -4,-66 241,-66 241,5 -4,5"/>
<!-- Node1 -->
<g id="node1" class="node"><title>Node1</title>
<polygon fill="#bfbfbf" stroke="black" points="0,-20.5 0,-41.5 128,-41.5 128,-20.5 0,-20.5"/>
<text text-anchor="middle" x="64" y="-28.5" font-family="Helvetica,sans-Serif" font-size="10.00">libcnn::Softmax::Softmax</text>
</g>
<!-- Node2 -->
<g id="node3" class="node"><title>Node2</title>
<a xlink:href="gtest__softmax_8cpp.html#ab7d7b4f078e317d92400b9bb0b9bdb86" target="_top" xlink:title="cnn_output">
<polygon fill="white" stroke="black" points="167.5,-40.5 167.5,-61.5 232.5,-61.5 232.5,-40.5 167.5,-40.5"/>
<text text-anchor="middle" x="200" y="-48.5" font-family="Helvetica,sans-Serif" font-size="10.00">cnn_output</text>
</a>
</g>
<!-- Node1&#45;&gt;Node2 -->
<g id="edge2" class="edge"><title>Node1&#45;&gt;Node2</title>
<path fill="none" stroke="midnightblue" d="M128.018,-40.4144C137.929,-41.8719 147.953,-43.3461 157.245,-44.7125"/>
<polygon fill="midnightblue" stroke="midnightblue" points="156.976,-48.2105 167.379,-46.2027 157.994,-41.285 156.976,-48.2105"/>
</g>
<!-- Node3 -->
<g id="node5" class="node"><title>Node3</title>
<a xlink:href="gtest__softmax_8cpp.html#ab74d1bf93fd1d95503a8200069ae04c0" target="_top" xlink:title="ground_truth">
<polygon fill="white" stroke="black" points="164.5,-0.5 164.5,-21.5 235.5,-21.5 235.5,-0.5 164.5,-0.5"/>
<text text-anchor="middle" x="200" y="-8.5" font-family="Helvetica,sans-Serif" font-size="10.00">ground_truth</text>
</a>
</g>
<!-- Node1&#45;&gt;Node3 -->
<g id="edge4" class="edge"><title>Node1&#45;&gt;Node3</title>
<path fill="none" stroke="midnightblue" d="M128.018,-21.5856C136.932,-20.2747 145.938,-18.9503 154.42,-17.703"/>
<polygon fill="midnightblue" stroke="midnightblue" points="155.08,-21.1436 164.465,-16.2258 154.062,-14.2181 155.08,-21.1436"/>
</g>
</g>
</svg>
