<?xml version="1.0" encoding="UTF-8" standalone="no"?>
<!DOCTYPE svg PUBLIC "-//W3C//DTD SVG 1.1//EN"
 "http://www.w3.org/Graphics/SVG/1.1/DTD/svg11.dtd">
<!-- Generated by graphviz version 2.26.3 (20100126.1600)
 -->
<!-- Title: G Pages: 1 -->
<svg width="136pt" height="406pt"
 viewBox="0.00 0.00 136.00 406.00" xmlns="http://www.w3.org/2000/svg" xmlns:xlink="http://www.w3.org/1999/xlink">
<g id="graph1" class="graph" transform="scale(1 1) rotate(0) translate(4 402)">
<title>G</title>
<polygon fill="white" stroke="white" points="-4,5 -4,-402 133,-402 133,5 -4,5"/>
<!-- Node1 -->
<g id="node1" class="node"><title>Node1</title>
<polygon fill="#bfbfbf" stroke="black" points="9,-0.5 9,-271.5 119,-271.5 119,-0.5 9,-0.5"/>
<text text-anchor="middle" x="64" y="-258.5" font-family="Helvetica,sans-Serif" font-size="10.00">libcnn::Softmax</text>
<polyline fill="none" stroke="black" points="9,-250.5 119,-250.5 "/>
<text text-anchor="start" x="17" y="-237.5" font-family="Helvetica,sans-Serif" font-size="10.00">+ weight</text>
<text text-anchor="start" x="17" y="-224.5" font-family="Helvetica,sans-Serif" font-size="10.00">+ bias</text>
<text text-anchor="start" x="17" y="-211.5" font-family="Helvetica,sans-Serif" font-size="10.00">+ input</text>
<text text-anchor="start" x="17" y="-198.5" font-family="Helvetica,sans-Serif" font-size="10.00">+ prob</text>
<text text-anchor="start" x="17" y="-185.5" font-family="Helvetica,sans-Serif" font-size="10.00">+ truth</text>
<text text-anchor="start" x="17" y="-172.5" font-family="Helvetica,sans-Serif" font-size="10.00">+ m</text>
<text text-anchor="start" x="17" y="-159.5" font-family="Helvetica,sans-Serif" font-size="10.00">+ c</text>
<text text-anchor="start" x="17" y="-146.5" font-family="Helvetica,sans-Serif" font-size="10.00">+ cost</text>
<text text-anchor="start" x="17" y="-133.5" font-family="Helvetica,sans-Serif" font-size="10.00">+ lr</text>
<text text-anchor="start" x="17" y="-120.5" font-family="Helvetica,sans-Serif" font-size="10.00">+ grad_input</text>
<polyline fill="none" stroke="black" points="9,-112.5 119,-112.5 "/>
<text text-anchor="start" x="17" y="-99.5" font-family="Helvetica,sans-Serif" font-size="10.00">+ Softmax()</text>
<text text-anchor="start" x="17" y="-86.5" font-family="Helvetica,sans-Serif" font-size="10.00">+ Softmax()</text>
<text text-anchor="start" x="17" y="-73.5" font-family="Helvetica,sans-Serif" font-size="10.00">+ calculation_output()</text>
<text text-anchor="start" x="17" y="-60.5" font-family="Helvetica,sans-Serif" font-size="10.00">+ backprop()</text>
<text text-anchor="start" x="17" y="-47.5" font-family="Helvetica,sans-Serif" font-size="10.00">+ Softmax()</text>
<text text-anchor="start" x="17" y="-34.5" font-family="Helvetica,sans-Serif" font-size="10.00">+ Softmax()</text>
<text text-anchor="start" x="17" y="-21.5" font-family="Helvetica,sans-Serif" font-size="10.00">+ calculation_output()</text>
<text text-anchor="start" x="17" y="-8.5" font-family="Helvetica,sans-Serif" font-size="10.00">+ backprop()</text>
</g>
<!-- Node2 -->
<g id="node2" class="node"><title>Node2</title>
<polygon fill="white" stroke="#bfbfbf" points="-0.5,-334.5 -0.5,-397.5 56.5,-397.5 56.5,-334.5 -0.5,-334.5"/>
<text text-anchor="middle" x="28" y="-384.5" font-family="Helvetica,sans-Serif" font-size="10.00">VectorXd</text>
<polyline fill="none" stroke="#bfbfbf" points="-0.5,-376.5 56.5,-376.5 "/>
<text text-anchor="middle" x="28" y="-363.5" font-family="Helvetica,sans-Serif" font-size="10.00"> </text>
<polyline fill="none" stroke="#bfbfbf" points="-0.5,-355.5 56.5,-355.5 "/>
<text text-anchor="middle" x="28" y="-342.5" font-family="Helvetica,sans-Serif" font-size="10.00"> </text>
</g>
<!-- Node2&#45;&gt;Node1 -->
<g id="edge2" class="edge"><title>Node2&#45;&gt;Node1</title>
<path fill="none" stroke="#404040" d="M33.0056,-334.019C35.2056,-319.965 37.9599,-302.367 40.9134,-283.498"/>
<polygon fill="none" stroke="#404040" points="40.9191,-283.461 37.8951,-276.914 42.7749,-271.605 45.7989,-278.151 40.9191,-283.461"/>
<text text-anchor="middle" x="46" y="-307" font-family="Helvetica,sans-Serif" font-size="10.00"> m</text>
<text text-anchor="middle" x="46" y="-294" font-family="Helvetica,sans-Serif" font-size="10.00">c</text>
</g>
<!-- Node3 -->
<g id="node4" class="node"><title>Node3</title>
<polygon fill="white" stroke="#bfbfbf" points="74,-334.5 74,-397.5 128,-397.5 128,-334.5 74,-334.5"/>
<text text-anchor="middle" x="101" y="-384.5" font-family="Helvetica,sans-Serif" font-size="10.00">VectorXi</text>
<polyline fill="none" stroke="#bfbfbf" points="74,-376.5 128,-376.5 "/>
<text text-anchor="middle" x="101" y="-363.5" font-family="Helvetica,sans-Serif" font-size="10.00"> </text>
<polyline fill="none" stroke="#bfbfbf" points="74,-355.5 128,-355.5 "/>
<text text-anchor="middle" x="101" y="-342.5" font-family="Helvetica,sans-Serif" font-size="10.00"> </text>
</g>
<!-- Node3&#45;&gt;Node1 -->
<g id="edge4" class="edge"><title>Node3&#45;&gt;Node1</title>
<path fill="none" stroke="#404040" d="M95.8553,-334.019C93.5943,-319.965 90.7634,-302.367 87.7279,-283.498"/>
<polygon fill="none" stroke="#404040" points="87.7207,-283.453 82.8185,-278.164 85.8147,-271.605 90.717,-276.893 87.7207,-283.453"/>
<text text-anchor="middle" x="103.5" y="-300.5" font-family="Helvetica,sans-Serif" font-size="10.00"> truth</text>
</g>
</g>
</svg>
