<?xml version="1.0" encoding="UTF-8" standalone="no"?>
<!DOCTYPE svg PUBLIC "-//W3C//DTD SVG 1.1//EN"
 "http://www.w3.org/Graphics/SVG/1.1/DTD/svg11.dtd">
<!-- Generated by graphviz version 2.26.3 (20100126.1600)
 -->
<!-- Title: G Pages: 1 -->
<svg width="400pt" height="88pt"
 viewBox="0.00 0.00 400.00 88.00" xmlns="http://www.w3.org/2000/svg" xmlns:xlink="http://www.w3.org/1999/xlink">
<g id="graph1" class="graph" transform="scale(1 1) rotate(0) translate(4 84)">
<title>G</title>
<polygon fill="white" stroke="white" points="-4,5 -4,-84 397,-84 397,5 -4,5"/>
<!-- Node1 -->
<g id="node1" class="node"><title>Node1</title>
<polygon fill="#bfbfbf" stroke="black" points="143,-58.5 143,-79.5 229,-79.5 229,-58.5 143,-58.5"/>
<text text-anchor="middle" x="186" y="-66.5" font-family="Helvetica,sans-Serif" font-size="10.00">test/conv2d.cpp</text>
</g>
<!-- Node2 -->
<g id="node3" class="node"><title>Node2</title>
<polygon fill="white" stroke="#bfbfbf" points="-0.5,-0.5 -0.5,-21.5 70.5,-21.5 70.5,-0.5 -0.5,-0.5"/>
<text text-anchor="middle" x="35" y="-8.5" font-family="Helvetica,sans-Serif" font-size="10.00">gtest/gtest.h</text>
</g>
<!-- Node1&#45;&gt;Node2 -->
<g id="edge2" class="edge"><title>Node1&#45;&gt;Node2</title>
<path fill="none" stroke="midnightblue" d="M158.655,-58.4966C134.358,-49.1639 98.6404,-35.4447 71.8322,-25.1475"/>
<polygon fill="midnightblue" stroke="midnightblue" points="72.9863,-21.8415 62.3962,-21.5231 70.4763,-28.376 72.9863,-21.8415"/>
</g>
<!-- Node3 -->
<g id="node5" class="node"><title>Node3</title>
<polygon fill="white" stroke="#bfbfbf" points="88,-0.5 88,-21.5 132,-21.5 132,-0.5 88,-0.5"/>
<text text-anchor="middle" x="110" y="-8.5" font-family="Helvetica,sans-Serif" font-size="10.00">vector</text>
</g>
<!-- Node1&#45;&gt;Node3 -->
<g id="edge4" class="edge"><title>Node1&#45;&gt;Node3</title>
<path fill="none" stroke="midnightblue" d="M172.06,-58.3619C160.812,-49.7773 144.784,-37.5459 131.835,-27.6636"/>
<polygon fill="midnightblue" stroke="midnightblue" points="133.924,-24.8551 123.851,-21.5707 129.677,-30.4198 133.924,-24.8551"/>
</g>
<!-- Node4 -->
<g id="node7" class="node"><title>Node4</title>
<polygon fill="white" stroke="#bfbfbf" points="149.5,-0.5 149.5,-21.5 222.5,-21.5 222.5,-0.5 149.5,-0.5"/>
<text text-anchor="middle" x="186" y="-8.5" font-family="Helvetica,sans-Serif" font-size="10.00">Eigen/Dense</text>
</g>
<!-- Node1&#45;&gt;Node4 -->
<g id="edge6" class="edge"><title>Node1&#45;&gt;Node4</title>
<path fill="none" stroke="midnightblue" d="M186,-58.3619C186,-50.9219 186,-40.7427 186,-31.7276"/>
<polygon fill="midnightblue" stroke="midnightblue" points="189.5,-31.5706 186,-21.5707 182.5,-31.5707 189.5,-31.5706"/>
</g>
<!-- Node5 -->
<g id="node9" class="node"><title>Node5</title>
<polygon fill="white" stroke="#bfbfbf" points="240,-0.5 240,-21.5 294,-21.5 294,-0.5 240,-0.5"/>
<text text-anchor="middle" x="267" y="-8.5" font-family="Helvetica,sans-Serif" font-size="10.00">iostream</text>
</g>
<!-- Node1&#45;&gt;Node5 -->
<g id="edge8" class="edge"><title>Node1&#45;&gt;Node5</title>
<path fill="none" stroke="midnightblue" d="M200.857,-58.3619C212.846,-49.7773 229.927,-37.5459 243.728,-27.6636"/>
<polygon fill="midnightblue" stroke="midnightblue" points="246.145,-30.2383 252.238,-21.5707 242.069,-24.5469 246.145,-30.2383"/>
</g>
<!-- Node6 -->
<g id="node11" class="node"><title>Node6</title>
<polygon fill="white" stroke="#bfbfbf" points="311.5,-0.5 311.5,-21.5 392.5,-21.5 392.5,-0.5 311.5,-0.5"/>
<text text-anchor="middle" x="352" y="-8.5" font-family="Helvetica,sans-Serif" font-size="10.00">../conv_layer.h</text>
</g>
<!-- Node1&#45;&gt;Node6 -->
<g id="edge10" class="edge"><title>Node1&#45;&gt;Node6</title>
<path fill="none" stroke="midnightblue" d="M216.061,-58.4966C243.007,-49.082 282.728,-35.2036 312.282,-24.8773"/>
<polygon fill="midnightblue" stroke="midnightblue" points="313.596,-28.1257 321.882,-21.5231 311.287,-21.5174 313.596,-28.1257"/>
</g>
</g>
</svg>
