<?xml version="1.0" encoding="UTF-8" standalone="no"?>
<!DOCTYPE svg PUBLIC "-//W3C//DTD SVG 1.1//EN"
 "http://www.w3.org/Graphics/SVG/1.1/DTD/svg11.dtd">
<!-- Generated by graphviz version 2.26.3 (20100126.1600)
 -->
<!-- Title: G Pages: 1 -->
<svg width="450pt" height="88pt"
 viewBox="0.00 0.00 450.00 88.00" xmlns="http://www.w3.org/2000/svg" xmlns:xlink="http://www.w3.org/1999/xlink">
<g id="graph1" class="graph" transform="scale(1 1) rotate(0) translate(4 84)">
<title>G</title>
<polygon fill="white" stroke="white" points="-4,5 -4,-84 447,-84 447,5 -4,5"/>
<!-- Node1 -->
<g id="node1" class="node"><title>Node1</title>
<polygon fill="#bfbfbf" stroke="black" points="155.5,-58.5 155.5,-79.5 274.5,-79.5 274.5,-58.5 155.5,-58.5"/>
<text text-anchor="middle" x="215" y="-66.5" font-family="Helvetica,sans-Serif" font-size="10.00">gpu/src/preprocess.cpp</text>
</g>
<!-- Node2 -->
<g id="node3" class="node"><title>Node2</title>
<polygon fill="white" stroke="#bfbfbf" points="0,-0.5 0,-21.5 54,-21.5 54,-0.5 0,-0.5"/>
<text text-anchor="middle" x="27" y="-8.5" font-family="Helvetica,sans-Serif" font-size="10.00">iostream</text>
</g>
<!-- Node1&#45;&gt;Node2 -->
<g id="edge2" class="edge"><title>Node1&#45;&gt;Node2</title>
<path fill="none" stroke="midnightblue" d="M180.955,-58.4966C147.825,-48.2758 97.643,-32.7941 63.6527,-22.3077"/>
<polygon fill="midnightblue" stroke="midnightblue" points="64.6796,-18.9618 54.0922,-19.3582 62.616,-25.6508 64.6796,-18.9618"/>
</g>
<!-- Node3 -->
<g id="node5" class="node"><title>Node3</title>
<polygon fill="white" stroke="#bfbfbf" points="71.5,-0.5 71.5,-21.5 144.5,-21.5 144.5,-0.5 71.5,-0.5"/>
<text text-anchor="middle" x="108" y="-8.5" font-family="Helvetica,sans-Serif" font-size="10.00">Eigen/Dense</text>
</g>
<!-- Node1&#45;&gt;Node3 -->
<g id="edge4" class="edge"><title>Node1&#45;&gt;Node3</title>
<path fill="none" stroke="midnightblue" d="M195.375,-58.3619C178.859,-49.4094 155.026,-36.4908 136.422,-26.4064"/>
<polygon fill="midnightblue" stroke="midnightblue" points="137.96,-23.2592 127.501,-21.5707 134.625,-29.4132 137.96,-23.2592"/>
</g>
<!-- Node4 -->
<g id="node7" class="node"><title>Node4</title>
<polygon fill="white" stroke="#bfbfbf" points="162,-0.5 162,-21.5 206,-21.5 206,-0.5 162,-0.5"/>
<text text-anchor="middle" x="184" y="-8.5" font-family="Helvetica,sans-Serif" font-size="10.00">vector</text>
</g>
<!-- Node1&#45;&gt;Node4 -->
<g id="edge6" class="edge"><title>Node1&#45;&gt;Node4</title>
<path fill="none" stroke="midnightblue" d="M209.314,-58.3619C205.163,-50.5949 199.416,-39.8426 194.447,-30.5458"/>
<polygon fill="midnightblue" stroke="midnightblue" points="197.45,-28.7401 189.65,-21.5707 191.277,-32.0398 197.45,-28.7401"/>
</g>
<!-- Node5 -->
<g id="node9" class="node"><title>Node5</title>
<polygon fill="white" stroke="#bfbfbf" points="224,-0.5 224,-21.5 268,-21.5 268,-0.5 224,-0.5"/>
<text text-anchor="middle" x="246" y="-8.5" font-family="Helvetica,sans-Serif" font-size="10.00">cmath</text>
</g>
<!-- Node1&#45;&gt;Node5 -->
<g id="edge8" class="edge"><title>Node1&#45;&gt;Node5</title>
<path fill="none" stroke="midnightblue" d="M220.686,-58.3619C224.837,-50.5949 230.584,-39.8426 235.553,-30.5458"/>
<polygon fill="midnightblue" stroke="midnightblue" points="238.723,-32.0398 240.35,-21.5707 232.55,-28.7401 238.723,-32.0398"/>
</g>
<!-- Node6 -->
<g id="node11" class="node"><title>Node6</title>
<polygon fill="white" stroke="#bfbfbf" points="285.5,-0.5 285.5,-21.5 358.5,-21.5 358.5,-0.5 285.5,-0.5"/>
<text text-anchor="middle" x="322" y="-8.5" font-family="Helvetica,sans-Serif" font-size="10.00">preprocess.h</text>
</g>
<!-- Node1&#45;&gt;Node6 -->
<g id="edge10" class="edge"><title>Node1&#45;&gt;Node6</title>
<path fill="none" stroke="midnightblue" d="M234.625,-58.3619C251.141,-49.4094 274.974,-36.4908 293.578,-26.4064"/>
<polygon fill="midnightblue" stroke="midnightblue" points="295.375,-29.4132 302.499,-21.5707 292.04,-23.2592 295.375,-29.4132"/>
</g>
<!-- Node7 -->
<g id="node13" class="node"><title>Node7</title>
<polygon fill="white" stroke="#bfbfbf" points="375.5,-0.5 375.5,-21.5 442.5,-21.5 442.5,-0.5 375.5,-0.5"/>
<text text-anchor="middle" x="409" y="-8.5" font-family="Helvetica,sans-Serif" font-size="10.00">load_data.h</text>
</g>
<!-- Node1&#45;&gt;Node7 -->
<g id="edge12" class="edge"><title>Node1&#45;&gt;Node7</title>
<path fill="none" stroke="midnightblue" d="M250.132,-58.4966C282.53,-48.8106 330.731,-34.3999 365.539,-23.9934"/>
<polygon fill="midnightblue" stroke="midnightblue" points="366.849,-27.255 375.428,-21.0371 364.844,-20.5483 366.849,-27.255"/>
</g>
</g>
</svg>
