<?xml version="1.0" encoding="UTF-8" standalone="no"?>
<!DOCTYPE svg PUBLIC "-//W3C//DTD SVG 1.1//EN"
 "http://www.w3.org/Graphics/SVG/1.1/DTD/svg11.dtd">
<!-- Generated by graphviz version 2.26.3 (20100126.1600)
 -->
<!-- Title: G Pages: 1 -->
<svg width="436pt" height="88pt"
 viewBox="0.00 0.00 436.00 88.00" xmlns="http://www.w3.org/2000/svg" xmlns:xlink="http://www.w3.org/1999/xlink">
<g id="graph1" class="graph" transform="scale(1 1) rotate(0) translate(4 84)">
<title>G</title>
<polygon fill="white" stroke="white" points="-4,5 -4,-84 433,-84 433,5 -4,5"/>
<!-- Node1 -->
<g id="node1" class="node"><title>Node1</title>
<polygon fill="#bfbfbf" stroke="black" points="149,-58.5 149,-79.5 279,-79.5 279,-58.5 149,-58.5"/>
<text text-anchor="middle" x="214" y="-66.5" font-family="Helvetica,sans-Serif" font-size="10.00">gpu/src/rand_initialize.cpp</text>
</g>
<!-- Node2 -->
<g id="node3" class="node"><title>Node2</title>
<polygon fill="white" stroke="#bfbfbf" points="0,-0.5 0,-21.5 54,-21.5 54,-0.5 0,-0.5"/>
<text text-anchor="middle" x="27" y="-8.5" font-family="Helvetica,sans-Serif" font-size="10.00">iostream</text>
</g>
<!-- Node1&#45;&gt;Node2 -->
<g id="edge2" class="edge"><title>Node1&#45;&gt;Node2</title>
<path fill="none" stroke="midnightblue" d="M180.136,-58.4966C147.419,-48.3493 97.9838,-33.0164 64.1891,-22.5346"/>
<polygon fill="midnightblue" stroke="midnightblue" points="64.8271,-19.068 54.2391,-19.4485 62.7534,-25.7538 64.8271,-19.068"/>
</g>
<!-- Node3 -->
<g id="node5" class="node"><title>Node3</title>
<polygon fill="white" stroke="#bfbfbf" points="71.5,-0.5 71.5,-21.5 144.5,-21.5 144.5,-0.5 71.5,-0.5"/>
<text text-anchor="middle" x="108" y="-8.5" font-family="Helvetica,sans-Serif" font-size="10.00">Eigen/Dense</text>
</g>
<!-- Node1&#45;&gt;Node3 -->
<g id="edge4" class="edge"><title>Node1&#45;&gt;Node3</title>
<path fill="none" stroke="midnightblue" d="M194.558,-58.3619C178.196,-49.4094 154.587,-36.4908 136.157,-26.4064"/>
<polygon fill="midnightblue" stroke="midnightblue" points="137.771,-23.3004 127.319,-21.5707 134.411,-29.4412 137.771,-23.3004"/>
</g>
<!-- Node4 -->
<g id="node7" class="node"><title>Node4</title>
<polygon fill="white" stroke="#bfbfbf" points="162,-0.5 162,-21.5 206,-21.5 206,-0.5 162,-0.5"/>
<text text-anchor="middle" x="184" y="-8.5" font-family="Helvetica,sans-Serif" font-size="10.00">vector</text>
</g>
<!-- Node1&#45;&gt;Node4 -->
<g id="edge6" class="edge"><title>Node1&#45;&gt;Node4</title>
<path fill="none" stroke="midnightblue" d="M208.498,-58.3619C204.48,-50.5949 198.919,-39.8426 194.11,-30.5458"/>
<polygon fill="midnightblue" stroke="midnightblue" points="197.171,-28.8448 189.468,-21.5707 190.953,-32.0608 197.171,-28.8448"/>
</g>
<!-- Node5 -->
<g id="node9" class="node"><title>Node5</title>
<polygon fill="white" stroke="#bfbfbf" points="223.5,-0.5 223.5,-21.5 264.5,-21.5 264.5,-0.5 223.5,-0.5"/>
<text text-anchor="middle" x="244" y="-8.5" font-family="Helvetica,sans-Serif" font-size="10.00">ctime</text>
</g>
<!-- Node1&#45;&gt;Node5 -->
<g id="edge8" class="edge"><title>Node1&#45;&gt;Node5</title>
<path fill="none" stroke="midnightblue" d="M219.502,-58.3619C223.52,-50.5949 229.081,-39.8426 233.89,-30.5458"/>
<polygon fill="midnightblue" stroke="midnightblue" points="237.047,-32.0608 238.532,-21.5707 230.829,-28.8448 237.047,-32.0608"/>
</g>
<!-- Node6 -->
<g id="node11" class="node"><title>Node6</title>
<polygon fill="white" stroke="#bfbfbf" points="281.5,-0.5 281.5,-21.5 326.5,-21.5 326.5,-0.5 281.5,-0.5"/>
<text text-anchor="middle" x="304" y="-8.5" font-family="Helvetica,sans-Serif" font-size="10.00">cstdlib</text>
</g>
<!-- Node1&#45;&gt;Node6 -->
<g id="edge10" class="edge"><title>Node1&#45;&gt;Node6</title>
<path fill="none" stroke="midnightblue" d="M230.507,-58.3619C244.082,-49.6138 263.533,-37.0786 279.015,-27.1015"/>
<polygon fill="midnightblue" stroke="midnightblue" points="281.088,-29.9297 287.597,-21.5707 277.296,-24.0457 281.088,-29.9297"/>
</g>
<!-- Node7 -->
<g id="node13" class="node"><title>Node7</title>
<polygon fill="white" stroke="#bfbfbf" points="344,-0.5 344,-21.5 428,-21.5 428,-0.5 344,-0.5"/>
<text text-anchor="middle" x="386" y="-8.5" font-family="Helvetica,sans-Serif" font-size="10.00">rand_initialize.h</text>
</g>
<!-- Node1&#45;&gt;Node7 -->
<g id="edge12" class="edge"><title>Node1&#45;&gt;Node7</title>
<path fill="none" stroke="midnightblue" d="M245.148,-58.4966C273.189,-49.0411 314.582,-35.0829 345.245,-24.7428"/>
<polygon fill="midnightblue" stroke="midnightblue" points="346.436,-28.035 354.794,-21.5231 344.2,-21.4019 346.436,-28.035"/>
</g>
</g>
</svg>
