<?xml version="1.0" encoding="UTF-8" standalone="no"?>
<!DOCTYPE svg PUBLIC "-//W3C//DTD SVG 1.1//EN"
 "http://www.w3.org/Graphics/SVG/1.1/DTD/svg11.dtd">
<!-- Generated by graphviz version 2.26.3 (20100126.1600)
 -->
<!-- Title: G Pages: 1 -->
<svg width="680pt" height="88pt"
 viewBox="0.00 0.00 680.00 88.00" xmlns="http://www.w3.org/2000/svg" xmlns:xlink="http://www.w3.org/1999/xlink">
<g id="graph1" class="graph" transform="scale(1 1) rotate(0) translate(4 84)">
<title>G</title>
<polygon fill="white" stroke="white" points="-4,5 -4,-84 677,-84 677,5 -4,5"/>
<!-- Node1 -->
<g id="node1" class="node"><title>Node1</title>
<polygon fill="#bfbfbf" stroke="black" points="258.5,-58.5 258.5,-79.5 365.5,-79.5 365.5,-58.5 258.5,-58.5"/>
<text text-anchor="middle" x="312" y="-66.5" font-family="Helvetica,sans-Serif" font-size="10.00">gpu/src/evaluate.cpp</text>
</g>
<!-- Node2 -->
<g id="node3" class="node"><title>Node2</title>
<polygon fill="white" stroke="#bfbfbf" points="0,-0.5 0,-21.5 54,-21.5 54,-0.5 0,-0.5"/>
<text text-anchor="middle" x="27" y="-8.5" font-family="Helvetica,sans-Serif" font-size="10.00">iostream</text>
</g>
<!-- Node1&#45;&gt;Node2 -->
<g id="edge2" class="edge"><title>Node1&#45;&gt;Node2</title>
<path fill="none" stroke="midnightblue" d="M258.203,-60.6029C209.7,-52.6361 136.279,-39.5977 63.7935,-22.0072"/>
<polygon fill="midnightblue" stroke="midnightblue" points="64.5844,-18.5975 54.0381,-19.6104 62.9142,-25.3954 64.5844,-18.5975"/>
</g>
<!-- Node3 -->
<g id="node5" class="node"><title>Node3</title>
<polygon fill="white" stroke="#bfbfbf" points="71.5,-0.5 71.5,-21.5 144.5,-21.5 144.5,-0.5 71.5,-0.5"/>
<text text-anchor="middle" x="108" y="-8.5" font-family="Helvetica,sans-Serif" font-size="10.00">Eigen/Dense</text>
</g>
<!-- Node1&#45;&gt;Node3 -->
<g id="edge4" class="edge"><title>Node1&#45;&gt;Node3</title>
<path fill="none" stroke="midnightblue" d="M275.057,-58.4966C241.263,-48.8884 191.116,-34.6311 154.586,-24.2449"/>
<polygon fill="midnightblue" stroke="midnightblue" points="155.244,-20.7935 144.668,-21.4252 153.33,-27.5266 155.244,-20.7935"/>
</g>
<!-- Node4 -->
<g id="node7" class="node"><title>Node4</title>
<polygon fill="white" stroke="#bfbfbf" points="162,-0.5 162,-21.5 206,-21.5 206,-0.5 162,-0.5"/>
<text text-anchor="middle" x="184" y="-8.5" font-family="Helvetica,sans-Serif" font-size="10.00">vector</text>
</g>
<!-- Node1&#45;&gt;Node4 -->
<g id="edge6" class="edge"><title>Node1&#45;&gt;Node4</title>
<path fill="none" stroke="midnightblue" d="M288.82,-58.4966C268.27,-49.1848 238.082,-35.5061 215.375,-25.2167"/>
<polygon fill="midnightblue" stroke="midnightblue" points="216.704,-21.9765 206.151,-21.0371 213.815,-28.3525 216.704,-21.9765"/>
</g>
<!-- Node5 -->
<g id="node9" class="node"><title>Node5</title>
<polygon fill="white" stroke="#bfbfbf" points="224,-0.5 224,-21.5 274,-21.5 274,-0.5 224,-0.5"/>
<text text-anchor="middle" x="249" y="-8.5" font-family="Helvetica,sans-Serif" font-size="10.00">fstream</text>
</g>
<!-- Node1&#45;&gt;Node5 -->
<g id="edge8" class="edge"><title>Node1&#45;&gt;Node5</title>
<path fill="none" stroke="midnightblue" d="M300.445,-58.3619C291.387,-50.0226 278.59,-38.2418 268.026,-28.5162"/>
<polygon fill="midnightblue" stroke="midnightblue" points="270.21,-25.7688 260.482,-21.5707 265.468,-30.9187 270.21,-25.7688"/>
</g>
<!-- Node6 -->
<g id="node11" class="node"><title>Node6</title>
<polygon fill="white" stroke="#bfbfbf" points="291.5,-0.5 291.5,-21.5 332.5,-21.5 332.5,-0.5 291.5,-0.5"/>
<text text-anchor="middle" x="312" y="-8.5" font-family="Helvetica,sans-Serif" font-size="10.00">string</text>
</g>
<!-- Node1&#45;&gt;Node6 -->
<g id="edge10" class="edge"><title>Node1&#45;&gt;Node6</title>
<path fill="none" stroke="midnightblue" d="M312,-58.3619C312,-50.9219 312,-40.7427 312,-31.7276"/>
<polygon fill="midnightblue" stroke="midnightblue" points="315.5,-31.5706 312,-21.5707 308.5,-31.5707 315.5,-31.5706"/>
</g>
<!-- Node7 -->
<g id="node13" class="node"><title>Node7</title>
<polygon fill="white" stroke="#bfbfbf" points="350,-0.5 350,-21.5 422,-21.5 422,-0.5 350,-0.5"/>
<text text-anchor="middle" x="386" y="-8.5" font-family="Helvetica,sans-Serif" font-size="10.00">conv_layer.h</text>
</g>
<!-- Node1&#45;&gt;Node7 -->
<g id="edge12" class="edge"><title>Node1&#45;&gt;Node7</title>
<path fill="none" stroke="midnightblue" d="M325.573,-58.3619C336.421,-49.859 351.834,-37.7785 364.379,-27.9466"/>
<polygon fill="midnightblue" stroke="midnightblue" points="366.802,-30.4942 372.513,-21.5707 362.484,-24.9848 366.802,-30.4942"/>
</g>
<!-- Node8 -->
<g id="node15" class="node"><title>Node8</title>
<polygon fill="white" stroke="#bfbfbf" points="439.5,-0.5 439.5,-21.5 528.5,-21.5 528.5,-0.5 439.5,-0.5"/>
<text text-anchor="middle" x="484" y="-8.5" font-family="Helvetica,sans-Serif" font-size="10.00">softmax_class.h</text>
</g>
<!-- Node1&#45;&gt;Node8 -->
<g id="edge14" class="edge"><title>Node1&#45;&gt;Node8</title>
<path fill="none" stroke="midnightblue" d="M343.148,-58.4966C371.189,-49.0411 412.582,-35.0829 443.245,-24.7428"/>
<polygon fill="midnightblue" stroke="midnightblue" points="444.436,-28.035 452.794,-21.5231 442.2,-21.4019 444.436,-28.035"/>
</g>
<!-- Node9 -->
<g id="node17" class="node"><title>Node9</title>
<polygon fill="white" stroke="#bfbfbf" points="545.5,-0.5 545.5,-21.5 588.5,-21.5 588.5,-0.5 545.5,-0.5"/>
<text text-anchor="middle" x="567" y="-8.5" font-family="Helvetica,sans-Serif" font-size="10.00">pool.h</text>
</g>
<!-- Node1&#45;&gt;Node9 -->
<g id="edge16" class="edge"><title>Node1&#45;&gt;Node9</title>
<path fill="none" stroke="midnightblue" d="M365.723,-60.0502C409.403,-52.2611 472.708,-39.812 535.784,-22.0832"/>
<polygon fill="midnightblue" stroke="midnightblue" points="536.839,-25.422 545.494,-19.3111 534.917,-18.691 536.839,-25.422"/>
</g>
<!-- Node10 -->
<g id="node19" class="node"><title>Node10</title>
<polygon fill="white" stroke="#bfbfbf" points="605.5,-0.5 605.5,-21.5 672.5,-21.5 672.5,-0.5 605.5,-0.5"/>
<text text-anchor="middle" x="639" y="-8.5" font-family="Helvetica,sans-Serif" font-size="10.00">load_data.h</text>
</g>
<!-- Node1&#45;&gt;Node10 -->
<g id="edge18" class="edge"><title>Node1&#45;&gt;Node10</title>
<path fill="none" stroke="midnightblue" d="M365.592,-61.6761C420.95,-53.7716 510.014,-40.1109 595.297,-22.2413"/>
<polygon fill="midnightblue" stroke="midnightblue" points="596.081,-25.653 605.138,-20.1565 594.63,-18.8049 596.081,-25.653"/>
</g>
</g>
</svg>
