<?xml version="1.0" encoding="UTF-8" standalone="no"?>
<!DOCTYPE svg PUBLIC "-//W3C//DTD SVG 1.1//EN"
 "http://www.w3.org/Graphics/SVG/1.1/DTD/svg11.dtd">
<!-- Generated by graphviz version 2.26.3 (20100126.1600)
 -->
<!-- Title: G Pages: 1 -->
<svg width="388pt" height="88pt"
 viewBox="0.00 0.00 388.00 88.00" xmlns="http://www.w3.org/2000/svg" xmlns:xlink="http://www.w3.org/1999/xlink">
<g id="graph1" class="graph" transform="scale(1 1) rotate(0) translate(4 84)">
<title>G</title>
<polygon fill="white" stroke="white" points="-4,5 -4,-84 385,-84 385,5 -4,5"/>
<!-- Node1 -->
<g id="node1" class="node"><title>Node1</title>
<polygon fill="#bfbfbf" stroke="black" points="107,-58.5 107,-79.5 241,-79.5 241,-58.5 107,-58.5"/>
<text text-anchor="middle" x="174" y="-66.5" font-family="Helvetica,sans-Serif" font-size="10.00">gpu/src/softmax_class.cpp</text>
</g>
<!-- Node2 -->
<g id="node3" class="node"><title>Node2</title>
<polygon fill="white" stroke="#bfbfbf" points="0,-0.5 0,-21.5 54,-21.5 54,-0.5 0,-0.5"/>
<text text-anchor="middle" x="27" y="-8.5" font-family="Helvetica,sans-Serif" font-size="10.00">iostream</text>
</g>
<!-- Node1&#45;&gt;Node2 -->
<g id="edge2" class="edge"><title>Node1&#45;&gt;Node2</title>
<path fill="none" stroke="midnightblue" d="M147.379,-58.4966C123.903,-49.2337 89.4747,-35.6499 63.4442,-25.3793"/>
<polygon fill="midnightblue" stroke="midnightblue" points="64.506,-22.0358 53.9193,-21.6212 61.9368,-28.5473 64.506,-22.0358"/>
</g>
<!-- Node3 -->
<g id="node5" class="node"><title>Node3</title>
<polygon fill="white" stroke="#bfbfbf" points="72,-0.5 72,-21.5 120,-21.5 120,-0.5 72,-0.5"/>
<text text-anchor="middle" x="96" y="-8.5" font-family="Helvetica,sans-Serif" font-size="10.00">stdlib.h</text>
</g>
<!-- Node1&#45;&gt;Node3 -->
<g id="edge4" class="edge"><title>Node1&#45;&gt;Node3</title>
<path fill="none" stroke="midnightblue" d="M159.694,-58.3619C148.149,-49.7773 131.7,-37.5459 118.41,-27.6636"/>
<polygon fill="midnightblue" stroke="midnightblue" points="120.329,-24.7291 110.216,-21.5707 116.152,-30.3463 120.329,-24.7291"/>
</g>
<!-- Node4 -->
<g id="node7" class="node"><title>Node4</title>
<polygon fill="white" stroke="#bfbfbf" points="137.5,-0.5 137.5,-21.5 210.5,-21.5 210.5,-0.5 137.5,-0.5"/>
<text text-anchor="middle" x="174" y="-8.5" font-family="Helvetica,sans-Serif" font-size="10.00">Eigen/Dense</text>
</g>
<!-- Node1&#45;&gt;Node4 -->
<g id="edge6" class="edge"><title>Node1&#45;&gt;Node4</title>
<path fill="none" stroke="midnightblue" d="M174,-58.3619C174,-50.9219 174,-40.7427 174,-31.7276"/>
<polygon fill="midnightblue" stroke="midnightblue" points="177.5,-31.5706 174,-21.5707 170.5,-31.5707 177.5,-31.5706"/>
</g>
<!-- Node5 -->
<g id="node9" class="node"><title>Node5</title>
<polygon fill="white" stroke="#bfbfbf" points="227.5,-0.5 227.5,-21.5 274.5,-21.5 274.5,-0.5 227.5,-0.5"/>
<text text-anchor="middle" x="251" y="-8.5" font-family="Helvetica,sans-Serif" font-size="10.00">math.h</text>
</g>
<!-- Node1&#45;&gt;Node5 -->
<g id="edge8" class="edge"><title>Node1&#45;&gt;Node5</title>
<path fill="none" stroke="midnightblue" d="M188.123,-58.3619C199.52,-49.7773 215.758,-37.5459 228.878,-27.6636"/>
<polygon fill="midnightblue" stroke="midnightblue" points="231.085,-30.3829 236.967,-21.5707 226.873,-24.7916 231.085,-30.3829"/>
</g>
<!-- Node6 -->
<g id="node11" class="node"><title>Node6</title>
<polygon fill="white" stroke="#bfbfbf" points="291.5,-0.5 291.5,-21.5 380.5,-21.5 380.5,-0.5 291.5,-0.5"/>
<text text-anchor="middle" x="336" y="-8.5" font-family="Helvetica,sans-Serif" font-size="10.00">softmax_class.h</text>
</g>
<!-- Node1&#45;&gt;Node6 -->
<g id="edge10" class="edge"><title>Node1&#45;&gt;Node6</title>
<path fill="none" stroke="midnightblue" d="M203.337,-58.4966C229.519,-49.1229 268.06,-35.3242 296.863,-25.0122"/>
<polygon fill="midnightblue" stroke="midnightblue" points="298.373,-28.189 306.608,-21.5231 296.013,-21.5987 298.373,-28.189"/>
</g>
</g>
</svg>
