<?xml version="1.0" encoding="UTF-8" standalone="no"?>
<!DOCTYPE svg PUBLIC "-//W3C//DTD SVG 1.1//EN"
 "http://www.w3.org/Graphics/SVG/1.1/DTD/svg11.dtd">
<!-- Generated by graphviz version 2.26.3 (20100126.1600)
 -->
<!-- Title: G Pages: 1 -->
<svg width="322pt" height="170pt"
 viewBox="0.00 0.00 322.00 170.00" xmlns="http://www.w3.org/2000/svg" xmlns:xlink="http://www.w3.org/1999/xlink">
<g id="graph1" class="graph" transform="scale(1 1) rotate(0) translate(4 166)">
<title>G</title>
<polygon fill="white" stroke="white" points="-4,5 -4,-166 319,-166 319,5 -4,5"/>
<!-- Node1 -->
<g id="node1" class="node"><title>Node1</title>
<polygon fill="#bfbfbf" stroke="black" points="0,-60.5 0,-81.5 42,-81.5 42,-60.5 0,-60.5"/>
<text text-anchor="middle" x="21" y="-68.5" font-family="Helvetica,sans-Serif" font-size="10.00">TEST</text>
</g>
<!-- Node2 -->
<g id="node3" class="node"><title>Node2</title>
<a xlink:href="gtest__softmax_8cpp.html#a15e6c82d14b7cde034d53e566fd2ff8e" target="_top" xlink:title="parser_yaml_para">
<polygon fill="white" stroke="black" points="116,-120.5 116,-141.5 210,-141.5 210,-120.5 116,-120.5"/>
<text text-anchor="middle" x="163" y="-128.5" font-family="Helvetica,sans-Serif" font-size="10.00">parser_yaml_para</text>
</a>
</g>
<!-- Node1&#45;&gt;Node2 -->
<g id="edge2" class="edge"><title>Node1&#45;&gt;Node2</title>
<path fill="none" stroke="midnightblue" d="M33.2764,-81.7186C44.2816,-90.79 61.2325,-103.482 78,-111 86.7267,-114.913 96.3143,-118.112 105.808,-120.711"/>
<polygon fill="midnightblue" stroke="midnightblue" points="105.074,-124.136 115.628,-123.207 106.799,-117.351 105.074,-124.136"/>
</g>
<!-- Node5 -->
<g id="node9" class="node"><title>Node5</title>
<a xlink:href="gtest__softmax_8cpp.html#ab7d7b4f078e317d92400b9bb0b9bdb86" target="_top" xlink:title="cnn_output">
<polygon fill="white" stroke="black" points="130.5,-80.5 130.5,-101.5 195.5,-101.5 195.5,-80.5 130.5,-80.5"/>
<text text-anchor="middle" x="163" y="-88.5" font-family="Helvetica,sans-Serif" font-size="10.00">cnn_output</text>
</a>
</g>
<!-- Node1&#45;&gt;Node5 -->
<g id="edge8" class="edge"><title>Node1&#45;&gt;Node5</title>
<path fill="none" stroke="midnightblue" d="M42.2588,-73.9942C62.818,-76.8899 94.5595,-81.3605 120.338,-84.9913"/>
<polygon fill="midnightblue" stroke="midnightblue" points="119.858,-88.4582 130.249,-86.3872 120.835,-81.5266 119.858,-88.4582"/>
</g>
<!-- Node6 -->
<g id="node11" class="node"><title>Node6</title>
<a xlink:href="gtest__softmax_8cpp.html#ab74d1bf93fd1d95503a8200069ae04c0" target="_top" xlink:title="ground_truth">
<polygon fill="white" stroke="black" points="127.5,-40.5 127.5,-61.5 198.5,-61.5 198.5,-40.5 127.5,-40.5"/>
<text text-anchor="middle" x="163" y="-48.5" font-family="Helvetica,sans-Serif" font-size="10.00">ground_truth</text>
</a>
</g>
<!-- Node1&#45;&gt;Node6 -->
<g id="edge10" class="edge"><title>Node1&#45;&gt;Node6</title>
<path fill="none" stroke="midnightblue" d="M42.2588,-68.0058C61.979,-65.2283 91.9875,-61.0018 117.154,-57.4572"/>
<polygon fill="midnightblue" stroke="midnightblue" points="117.826,-60.8971 127.24,-56.0366 116.85,-53.9655 117.826,-60.8971"/>
</g>
<!-- Node7 -->
<g id="node13" class="node"><title>Node7</title>
<a xlink:href="classlibcnn_1_1_softmax.html#ae6af9e18ce2ab849d26b38a9d4a5be20" target="_top" xlink:title="libcnn::Softmax::calculation_output">
<polygon fill="white" stroke="black" points="78,-0.5 78,-21.5 248,-21.5 248,-0.5 78,-0.5"/>
<text text-anchor="middle" x="163" y="-8.5" font-family="Helvetica,sans-Serif" font-size="10.00">libcnn::Softmax::calculation_output</text>
</a>
</g>
<!-- Node1&#45;&gt;Node7 -->
<g id="edge12" class="edge"><title>Node1&#45;&gt;Node7</title>
<path fill="none" stroke="midnightblue" d="M33.2764,-60.2814C44.2816,-51.21 61.2325,-38.518 78,-31 83.4057,-28.5762 89.1417,-26.4264 94.9812,-24.5234"/>
<polygon fill="midnightblue" stroke="midnightblue" points="96.299,-27.782 104.866,-21.5489 94.2819,-21.0788 96.299,-27.782"/>
</g>
<!-- Node3 -->
<g id="node5" class="node"><title>Node3</title>
<a xlink:href="test_2yaml__t__load_8cpp.html#a600eac78667d5a813045d8ef2f4395dd" target="_top" xlink:title="d">
<polygon fill="white" stroke="black" points="284.5,-140.5 284.5,-161.5 313.5,-161.5 313.5,-140.5 284.5,-140.5"/>
<text text-anchor="middle" x="299" y="-148.5" font-family="Helvetica,sans-Serif" font-size="10.00">d</text>
</a>
</g>
<!-- Node2&#45;&gt;Node3 -->
<g id="edge4" class="edge"><title>Node2&#45;&gt;Node3</title>
<path fill="none" stroke="midnightblue" d="M210.185,-137.939C231.888,-141.131 256.721,-144.783 274.601,-147.412"/>
<polygon fill="midnightblue" stroke="midnightblue" points="274.093,-150.875 284.496,-148.867 275.112,-143.949 274.093,-150.875"/>
</g>
<!-- Node4 -->
<g id="node7" class="node"><title>Node4</title>
<a xlink:href="test_2yaml__t__load_8cpp.html#a80d599bd22867a8e610e0be09bf1128d" target="_top" xlink:title="v">
<polygon fill="white" stroke="black" points="284.5,-100.5 284.5,-121.5 313.5,-121.5 313.5,-100.5 284.5,-100.5"/>
<text text-anchor="middle" x="299" y="-108.5" font-family="Helvetica,sans-Serif" font-size="10.00">v</text>
</a>
</g>
<!-- Node2&#45;&gt;Node4 -->
<g id="edge6" class="edge"><title>Node2&#45;&gt;Node4</title>
<path fill="none" stroke="midnightblue" d="M210.185,-124.061C231.888,-120.869 256.721,-117.217 274.601,-114.588"/>
<polygon fill="midnightblue" stroke="midnightblue" points="275.112,-118.051 284.496,-113.133 274.093,-111.125 275.112,-118.051"/>
</g>
</g>
</svg>
