<?xml version="1.0" encoding="UTF-8" standalone="no"?>
<!DOCTYPE svg PUBLIC "-//W3C//DTD SVG 1.1//EN"
 "http://www.w3.org/Graphics/SVG/1.1/DTD/svg11.dtd">
<!-- Generated by graphviz version 2.26.3 (20100126.1600)
 -->
<!-- Title: G Pages: 1 -->
<svg width="964pt" height="88pt"
 viewBox="0.00 0.00 964.00 88.00" xmlns="http://www.w3.org/2000/svg" xmlns:xlink="http://www.w3.org/1999/xlink">
<g id="graph1" class="graph" transform="scale(1 1) rotate(0) translate(4 84)">
<title>G</title>
<polygon fill="white" stroke="white" points="-4,5 -4,-84 961,-84 961,5 -4,5"/>
<!-- Node1 -->
<g id="node1" class="node"><title>Node1</title>
<polygon fill="#bfbfbf" stroke="black" points="477.5,-58.5 477.5,-79.5 554.5,-79.5 554.5,-58.5 477.5,-58.5"/>
<text text-anchor="middle" x="516" y="-66.5" font-family="Helvetica,sans-Serif" font-size="10.00">include/pool.h</text>
</g>
<!-- Node2 -->
<g id="node3" class="node"><title>Node2</title>
<a xlink:href="gpu_2src_2evaluate_8cpp.html" target="_top" xlink:title="gpu/src/evaluate.cpp">
<polygon fill="white" stroke="black" points="-0.5,-0.5 -0.5,-21.5 106.5,-21.5 106.5,-0.5 -0.5,-0.5"/>
<text text-anchor="middle" x="53" y="-8.5" font-family="Helvetica,sans-Serif" font-size="10.00">gpu/src/evaluate.cpp</text>
</a>
</g>
<!-- Node1&#45;&gt;Node2 -->
<g id="edge2" class="edge"><title>Node1&#45;&gt;Node2</title>
<path fill="none" stroke="midnightblue" d="M467.31,-64.2281C391.727,-56.6099 241.669,-40.6435 115,-22 112.296,-21.602 109.529,-21.1769 106.737,-20.7337"/>
<polygon fill="midnightblue" stroke="midnightblue" points="467.171,-67.7317 477.471,-65.2471 467.87,-60.7666 467.171,-67.7317"/>
</g>
<!-- Node3 -->
<g id="node5" class="node"><title>Node3</title>
<a xlink:href="gpu_2src_2online__test_8cpp.html" target="_top" xlink:title="gpu/src/online_test.cpp">
<polygon fill="white" stroke="black" points="124,-0.5 124,-21.5 242,-21.5 242,-0.5 124,-0.5"/>
<text text-anchor="middle" x="183" y="-8.5" font-family="Helvetica,sans-Serif" font-size="10.00">gpu/src/online_test.cpp</text>
</a>
</g>
<!-- Node1&#45;&gt;Node3 -->
<g id="edge4" class="edge"><title>Node1&#45;&gt;Node3</title>
<path fill="none" stroke="midnightblue" d="M467.546,-60.5606C407.836,-50.1606 306.418,-32.4962 242.166,-21.3052"/>
<polygon fill="midnightblue" stroke="midnightblue" points="467.023,-64.0221 477.475,-62.29 468.224,-57.1259 467.023,-64.0221"/>
</g>
<!-- Node4 -->
<g id="node7" class="node"><title>Node4</title>
<a xlink:href="gpu_2src_2pool_8cpp.html" target="_top" xlink:title="gpu/src/pool.cpp">
<polygon fill="white" stroke="black" points="259.5,-0.5 259.5,-21.5 348.5,-21.5 348.5,-0.5 259.5,-0.5"/>
<text text-anchor="middle" x="304" y="-8.5" font-family="Helvetica,sans-Serif" font-size="10.00">gpu/src/pool.cpp</text>
</a>
</g>
<!-- Node1&#45;&gt;Node4 -->
<g id="edge6" class="edge"><title>Node1&#45;&gt;Node4</title>
<path fill="none" stroke="midnightblue" d="M467.797,-55.8123C429.842,-45.4285 377.647,-31.1487 342.464,-21.5231"/>
<polygon fill="midnightblue" stroke="midnightblue" points="467.039,-59.2336 477.608,-58.4966 468.886,-52.4818 467.039,-59.2336"/>
</g>
<!-- Node5 -->
<g id="node9" class="node"><title>Node5</title>
<a xlink:href="gpu_2src_2train_8cpp.html" target="_top" xlink:title="gpu/src/train.cpp">
<polygon fill="white" stroke="black" points="365.5,-0.5 365.5,-21.5 454.5,-21.5 454.5,-0.5 365.5,-0.5"/>
<text text-anchor="middle" x="410" y="-8.5" font-family="Helvetica,sans-Serif" font-size="10.00">gpu/src/train.cpp</text>
</a>
</g>
<!-- Node1&#45;&gt;Node5 -->
<g id="edge8" class="edge"><title>Node1&#45;&gt;Node5</title>
<path fill="none" stroke="midnightblue" d="M487.704,-53.5175C469.248,-43.4189 445.644,-30.5032 429.319,-21.5707"/>
<polygon fill="midnightblue" stroke="midnightblue" points="486.105,-56.6322 496.558,-58.3619 489.465,-50.4913 486.105,-56.6322"/>
</g>
<!-- Node6 -->
<g id="node11" class="node"><title>Node6</title>
<a xlink:href="src_2evaluate_8cpp.html" target="_top" xlink:title="src/evaluate.cpp">
<polygon fill="white" stroke="black" points="471.5,-0.5 471.5,-21.5 560.5,-21.5 560.5,-0.5 471.5,-0.5"/>
<text text-anchor="middle" x="516" y="-8.5" font-family="Helvetica,sans-Serif" font-size="10.00">src/evaluate.cpp</text>
</a>
</g>
<!-- Node1&#45;&gt;Node6 -->
<g id="edge10" class="edge"><title>Node1&#45;&gt;Node6</title>
<path fill="none" stroke="midnightblue" d="M516,-48.1906C516,-39.1684 516,-28.9941 516,-21.5707"/>
<polygon fill="midnightblue" stroke="midnightblue" points="512.5,-48.3619 516,-58.3619 519.5,-48.3619 512.5,-48.3619"/>
</g>
<!-- Node7 -->
<g id="node13" class="node"><title>Node7</title>
<a xlink:href="src_2online__test_8cpp.html" target="_top" xlink:title="src/online_test.cpp">
<polygon fill="white" stroke="black" points="577.5,-0.5 577.5,-21.5 676.5,-21.5 676.5,-0.5 577.5,-0.5"/>
<text text-anchor="middle" x="627" y="-8.5" font-family="Helvetica,sans-Serif" font-size="10.00">src/online_test.cpp</text>
</a>
</g>
<!-- Node1&#45;&gt;Node7 -->
<g id="edge12" class="edge"><title>Node1&#45;&gt;Node7</title>
<path fill="none" stroke="midnightblue" d="M545.101,-53.794C564.468,-43.6746 589.425,-30.6338 606.673,-21.6212"/>
<polygon fill="midnightblue" stroke="midnightblue" points="543.343,-50.7634 536.101,-58.4966 546.585,-56.9675 543.343,-50.7634"/>
</g>
<!-- Node8 -->
<g id="node15" class="node"><title>Node8</title>
<a xlink:href="src_2pool_8cpp.html" target="_top" xlink:title="src/pool.cpp">
<polygon fill="white" stroke="black" points="694,-0.5 694,-21.5 764,-21.5 764,-0.5 694,-0.5"/>
<text text-anchor="middle" x="729" y="-8.5" font-family="Helvetica,sans-Serif" font-size="10.00">src/pool.cpp</text>
</a>
</g>
<!-- Node1&#45;&gt;Node8 -->
<g id="edge14" class="edge"><title>Node1&#45;&gt;Node8</title>
<path fill="none" stroke="midnightblue" d="M564.247,-55.8622C603.689,-45.1223 658.527,-30.1899 693.894,-20.5595"/>
<polygon fill="midnightblue" stroke="midnightblue" points="563.302,-52.4922 554.573,-58.4966 565.141,-59.2463 563.302,-52.4922"/>
</g>
<!-- Node9 -->
<g id="node17" class="node"><title>Node9</title>
<a xlink:href="src_2train_8cpp.html" target="_top" xlink:title="src/train.cpp">
<polygon fill="white" stroke="black" points="781.5,-0.5 781.5,-21.5 852.5,-21.5 852.5,-0.5 781.5,-0.5"/>
<text text-anchor="middle" x="817" y="-8.5" font-family="Helvetica,sans-Serif" font-size="10.00">src/train.cpp</text>
</a>
</g>
<!-- Node1&#45;&gt;Node9 -->
<g id="edge16" class="edge"><title>Node1&#45;&gt;Node9</title>
<path fill="none" stroke="midnightblue" d="M564.826,-61.0293C616.661,-52.3437 700.889,-37.591 773,-22 775.617,-21.4343 778.314,-20.8248 781.026,-20.1931"/>
<polygon fill="midnightblue" stroke="midnightblue" points="564.192,-57.5866 554.904,-62.684 565.344,-64.4912 564.192,-57.5866"/>
</g>
<!-- Node10 -->
<g id="node19" class="node"><title>Node10</title>
<a xlink:href="validate_8cpp.html" target="_top" xlink:title="src/validate.cpp">
<polygon fill="white" stroke="black" points="870,-0.5 870,-21.5 956,-21.5 956,-0.5 870,-0.5"/>
<text text-anchor="middle" x="913" y="-8.5" font-family="Helvetica,sans-Serif" font-size="10.00">src/validate.cpp</text>
</a>
</g>
<!-- Node1&#45;&gt;Node10 -->
<g id="edge18" class="edge"><title>Node1&#45;&gt;Node10</title>
<path fill="none" stroke="midnightblue" d="M564.945,-63.4741C631.974,-55.6465 755.989,-40.2347 861,-22 863.909,-21.4948 866.904,-20.944 869.917,-20.367"/>
<polygon fill="midnightblue" stroke="midnightblue" points="564.218,-60.0348 554.688,-64.6645 565.025,-66.9882 564.218,-60.0348"/>
</g>
</g>
</svg>
