<?xml version="1.0" encoding="UTF-8" standalone="no"?>
<!DOCTYPE svg PUBLIC "-//W3C//DTD SVG 1.1//EN"
 "http://www.w3.org/Graphics/SVG/1.1/DTD/svg11.dtd">
<!-- Generated by graphviz version 2.26.3 (20100126.1600)
 -->
<!-- Title: G Pages: 1 -->
<svg width="564pt" height="88pt"
 viewBox="0.00 0.00 564.00 88.00" xmlns="http://www.w3.org/2000/svg" xmlns:xlink="http://www.w3.org/1999/xlink">
<g id="graph1" class="graph" transform="scale(1 1) rotate(0) translate(4 84)">
<title>G</title>
<polygon fill="white" stroke="white" points="-4,5 -4,-84 561,-84 561,5 -4,5"/>
<!-- Node1 -->
<g id="node1" class="node"><title>Node1</title>
<polygon fill="#bfbfbf" stroke="black" points="250,-58.5 250,-79.5 368,-79.5 368,-58.5 250,-58.5"/>
<text text-anchor="middle" x="309" y="-66.5" font-family="Helvetica,sans-Serif" font-size="10.00">include/rand_initialize.h</text>
</g>
<!-- Node2 -->
<g id="node3" class="node"><title>Node2</title>
<a xlink:href="gpu_2src_2rand__initialize_8cpp.html" target="_top" xlink:title="gpu/src/rand_initialize.cpp">
<polygon fill="white" stroke="black" points="0,-0.5 0,-21.5 130,-21.5 130,-0.5 0,-0.5"/>
<text text-anchor="middle" x="65" y="-8.5" font-family="Helvetica,sans-Serif" font-size="10.00">gpu/src/rand_initialize.cpp</text>
</a>
</g>
<!-- Node1&#45;&gt;Node2 -->
<g id="edge2" class="edge"><title>Node1&#45;&gt;Node2</title>
<path fill="none" stroke="midnightblue" d="M254.909,-56.1424C211.117,-45.7328 150.194,-31.2511 109.269,-21.5231"/>
<polygon fill="midnightblue" stroke="midnightblue" points="254.275,-59.5891 264.813,-58.4966 255.894,-52.7788 254.275,-59.5891"/>
</g>
<!-- Node3 -->
<g id="node5" class="node"><title>Node3</title>
<a xlink:href="gpu_2src_2train_8cpp.html" target="_top" xlink:title="gpu/src/train.cpp">
<polygon fill="white" stroke="black" points="147.5,-0.5 147.5,-21.5 236.5,-21.5 236.5,-0.5 147.5,-0.5"/>
<text text-anchor="middle" x="192" y="-8.5" font-family="Helvetica,sans-Serif" font-size="10.00">gpu/src/train.cpp</text>
</a>
</g>
<!-- Node1&#45;&gt;Node3 -->
<g id="edge4" class="edge"><title>Node1&#45;&gt;Node3</title>
<path fill="none" stroke="midnightblue" d="M278.604,-53.9319C258.152,-43.7932 231.689,-30.6748 213.426,-21.6212"/>
<polygon fill="midnightblue" stroke="midnightblue" points="277.298,-57.1909 287.812,-58.4966 280.407,-50.9193 277.298,-57.1909"/>
</g>
<!-- Node4 -->
<g id="node7" class="node"><title>Node4</title>
<a xlink:href="src_2rand__initialize_8cpp.html" target="_top" xlink:title="src/rand_initialize.cpp">
<polygon fill="white" stroke="black" points="253.5,-0.5 253.5,-21.5 364.5,-21.5 364.5,-0.5 253.5,-0.5"/>
<text text-anchor="middle" x="309" y="-8.5" font-family="Helvetica,sans-Serif" font-size="10.00">src/rand_initialize.cpp</text>
</a>
</g>
<!-- Node1&#45;&gt;Node4 -->
<g id="edge6" class="edge"><title>Node1&#45;&gt;Node4</title>
<path fill="none" stroke="midnightblue" d="M309,-48.1906C309,-39.1684 309,-28.9941 309,-21.5707"/>
<polygon fill="midnightblue" stroke="midnightblue" points="305.5,-48.3619 309,-58.3619 312.5,-48.3619 305.5,-48.3619"/>
</g>
<!-- Node5 -->
<g id="node9" class="node"><title>Node5</title>
<a xlink:href="src_2train_8cpp.html" target="_top" xlink:title="src/train.cpp">
<polygon fill="white" stroke="black" points="381.5,-0.5 381.5,-21.5 452.5,-21.5 452.5,-0.5 381.5,-0.5"/>
<text text-anchor="middle" x="417" y="-8.5" font-family="Helvetica,sans-Serif" font-size="10.00">src/train.cpp</text>
</a>
</g>
<!-- Node1&#45;&gt;Node5 -->
<g id="edge8" class="edge"><title>Node1&#45;&gt;Node5</title>
<path fill="none" stroke="midnightblue" d="M337.572,-53.6559C356.378,-43.5561 380.517,-30.5928 397.223,-21.6212"/>
<polygon fill="midnightblue" stroke="midnightblue" points="335.712,-50.6818 328.558,-58.4966 339.024,-56.8488 335.712,-50.6818"/>
</g>
<!-- Node6 -->
<g id="node11" class="node"><title>Node6</title>
<a xlink:href="validate_8cpp.html" target="_top" xlink:title="src/validate.cpp">
<polygon fill="white" stroke="black" points="470,-0.5 470,-21.5 556,-21.5 556,-0.5 470,-0.5"/>
<text text-anchor="middle" x="513" y="-8.5" font-family="Helvetica,sans-Serif" font-size="10.00">src/validate.cpp</text>
</a>
</g>
<!-- Node1&#45;&gt;Node6 -->
<g id="edge10" class="edge"><title>Node1&#45;&gt;Node6</title>
<path fill="none" stroke="midnightblue" d="M355.851,-55.6795C392.334,-45.307 442.276,-31.1078 475.988,-21.5231"/>
<polygon fill="midnightblue" stroke="midnightblue" points="354.604,-52.3952 345.943,-58.4966 356.519,-59.1284 354.604,-52.3952"/>
</g>
</g>
</svg>
