<?xml version="1.0" encoding="UTF-8" standalone="no"?>
<!DOCTYPE svg PUBLIC "-//W3C//DTD SVG 1.1//EN"
 "http://www.w3.org/Graphics/SVG/1.1/DTD/svg11.dtd">
<!-- Generated by graphviz version 2.26.3 (20100126.1600)
 -->
<!-- Title: G Pages: 1 -->
<svg width="296pt" height="88pt"
 viewBox="0.00 0.00 296.00 88.00" xmlns="http://www.w3.org/2000/svg" xmlns:xlink="http://www.w3.org/1999/xlink">
<g id="graph1" class="graph" transform="scale(1 1) rotate(0) translate(4 84)">
<title>G</title>
<polygon fill="white" stroke="white" points="-4,5 -4,-84 293,-84 293,5 -4,5"/>
<!-- Node1 -->
<g id="node1" class="node"><title>Node1</title>
<polygon fill="#bfbfbf" stroke="black" points="97.5,-58.5 97.5,-79.5 204.5,-79.5 204.5,-58.5 97.5,-58.5"/>
<text text-anchor="middle" x="151" y="-66.5" font-family="Helvetica,sans-Serif" font-size="10.00">include/preprocess.h</text>
</g>
<!-- Node2 -->
<g id="node3" class="node"><title>Node2</title>
<polygon fill="white" stroke="#bfbfbf" points="0,-0.5 0,-21.5 54,-21.5 54,-0.5 0,-0.5"/>
<text text-anchor="middle" x="27" y="-8.5" font-family="Helvetica,sans-Serif" font-size="10.00">iostream</text>
</g>
<!-- Node1&#45;&gt;Node2 -->
<g id="edge2" class="edge"><title>Node1&#45;&gt;Node2</title>
<path fill="none" stroke="midnightblue" d="M128.545,-58.4966C109.09,-49.397 80.7203,-36.1273 58.9093,-25.9253"/>
<polygon fill="midnightblue" stroke="midnightblue" points="60.2485,-22.6878 49.7074,-21.6212 57.2826,-29.0285 60.2485,-22.6878"/>
</g>
<!-- Node3 -->
<g id="node5" class="node"><title>Node3</title>
<polygon fill="white" stroke="#bfbfbf" points="71.5,-0.5 71.5,-21.5 144.5,-21.5 144.5,-0.5 71.5,-0.5"/>
<text text-anchor="middle" x="108" y="-8.5" font-family="Helvetica,sans-Serif" font-size="10.00">Eigen/Dense</text>
</g>
<!-- Node1&#45;&gt;Node3 -->
<g id="edge4" class="edge"><title>Node1&#45;&gt;Node3</title>
<path fill="none" stroke="midnightblue" d="M143.113,-58.3619C137.173,-50.3496 128.878,-39.1605 121.841,-29.6696"/>
<polygon fill="midnightblue" stroke="midnightblue" points="124.604,-27.5193 115.837,-21.5707 118.981,-31.6883 124.604,-27.5193"/>
</g>
<!-- Node4 -->
<g id="node7" class="node"><title>Node4</title>
<polygon fill="white" stroke="#bfbfbf" points="161.5,-0.5 161.5,-21.5 226.5,-21.5 226.5,-0.5 161.5,-0.5"/>
<text text-anchor="middle" x="194" y="-8.5" font-family="Helvetica,sans-Serif" font-size="10.00">Eigen/Core</text>
</g>
<!-- Node1&#45;&gt;Node4 -->
<g id="edge6" class="edge"><title>Node1&#45;&gt;Node4</title>
<path fill="none" stroke="midnightblue" d="M158.887,-58.3619C164.827,-50.3496 173.122,-39.1605 180.159,-29.6696"/>
<polygon fill="midnightblue" stroke="midnightblue" points="183.019,-31.6883 186.163,-21.5707 177.396,-27.5193 183.019,-31.6883"/>
</g>
<!-- Node5 -->
<g id="node9" class="node"><title>Node5</title>
<polygon fill="white" stroke="#bfbfbf" points="244,-0.5 244,-21.5 288,-21.5 288,-0.5 244,-0.5"/>
<text text-anchor="middle" x="266" y="-8.5" font-family="Helvetica,sans-Serif" font-size="10.00">vector</text>
</g>
<!-- Node1&#45;&gt;Node5 -->
<g id="edge8" class="edge"><title>Node1&#45;&gt;Node5</title>
<path fill="none" stroke="midnightblue" d="M171.826,-58.4966C189.706,-49.4786 215.707,-36.3649 235.861,-26.2006"/>
<polygon fill="midnightblue" stroke="midnightblue" points="237.588,-29.2495 244.941,-21.6212 234.436,-22.9994 237.588,-29.2495"/>
</g>
</g>
</svg>
