<?xml version="1.0" encoding="UTF-8" standalone="no"?>
<!DOCTYPE svg PUBLIC "-//W3C//DTD SVG 1.1//EN"
 "http://www.w3.org/Graphics/SVG/1.1/DTD/svg11.dtd">
<!-- Generated by graphviz version 2.26.3 (20100126.1600)
 -->
<!-- Title: G Pages: 1 -->
<svg width="416pt" height="88pt"
 viewBox="0.00 0.00 416.00 88.00" xmlns="http://www.w3.org/2000/svg" xmlns:xlink="http://www.w3.org/1999/xlink">
<g id="graph1" class="graph" transform="scale(1 1) rotate(0) translate(4 84)">
<title>G</title>
<polygon fill="white" stroke="white" points="-4,5 -4,-84 413,-84 413,5 -4,5"/>
<!-- Node1 -->
<g id="node1" class="node"><title>Node1</title>
<polygon fill="#bfbfbf" stroke="black" points="177,-58.5 177,-79.5 283,-79.5 283,-58.5 177,-58.5"/>
<text text-anchor="middle" x="230" y="-66.5" font-family="Helvetica,sans-Serif" font-size="10.00">include/conv_layer.h</text>
</g>
<!-- Node2 -->
<g id="node3" class="node"><title>Node2</title>
<polygon fill="white" stroke="#bfbfbf" points="0,-0.5 0,-21.5 54,-21.5 54,-0.5 0,-0.5"/>
<text text-anchor="middle" x="27" y="-8.5" font-family="Helvetica,sans-Serif" font-size="10.00">iostream</text>
</g>
<!-- Node1&#45;&gt;Node2 -->
<g id="edge2" class="edge"><title>Node1&#45;&gt;Node2</title>
<path fill="none" stroke="midnightblue" d="M191.459,-58.4146C159.685,-49.6292 113.193,-36.6416 63.9824,-22.2496"/>
<polygon fill="midnightblue" stroke="midnightblue" points="64.6883,-18.8093 54.1075,-19.3533 62.7182,-25.5263 64.6883,-18.8093"/>
</g>
<!-- Node3 -->
<g id="node5" class="node"><title>Node3</title>
<polygon fill="white" stroke="#bfbfbf" points="71.5,-0.5 71.5,-21.5 144.5,-21.5 144.5,-0.5 71.5,-0.5"/>
<text text-anchor="middle" x="108" y="-8.5" font-family="Helvetica,sans-Serif" font-size="10.00">Eigen/Dense</text>
</g>
<!-- Node1&#45;&gt;Node3 -->
<g id="edge4" class="edge"><title>Node1&#45;&gt;Node3</title>
<path fill="none" stroke="midnightblue" d="M207.907,-58.4966C188.766,-49.397 160.854,-36.1273 139.395,-25.9253"/>
<polygon fill="midnightblue" stroke="midnightblue" points="140.875,-22.7539 130.341,-21.6212 137.87,-29.0758 140.875,-22.7539"/>
</g>
<!-- Node4 -->
<g id="node7" class="node"><title>Node4</title>
<polygon fill="white" stroke="#bfbfbf" points="161.5,-0.5 161.5,-21.5 226.5,-21.5 226.5,-0.5 161.5,-0.5"/>
<text text-anchor="middle" x="194" y="-8.5" font-family="Helvetica,sans-Serif" font-size="10.00">Eigen/Core</text>
</g>
<!-- Node1&#45;&gt;Node4 -->
<g id="edge6" class="edge"><title>Node1&#45;&gt;Node4</title>
<path fill="none" stroke="midnightblue" d="M223.397,-58.3619C218.525,-50.5131 211.762,-39.6159 205.95,-30.2527"/>
<polygon fill="midnightblue" stroke="midnightblue" points="208.809,-28.2213 200.561,-21.5707 202.861,-31.9129 208.809,-28.2213"/>
</g>
<!-- Node5 -->
<g id="node9" class="node"><title>Node5</title>
<polygon fill="white" stroke="#bfbfbf" points="244,-0.5 244,-21.5 288,-21.5 288,-0.5 244,-0.5"/>
<text text-anchor="middle" x="266" y="-8.5" font-family="Helvetica,sans-Serif" font-size="10.00">vector</text>
</g>
<!-- Node1&#45;&gt;Node5 -->
<g id="edge8" class="edge"><title>Node1&#45;&gt;Node5</title>
<path fill="none" stroke="midnightblue" d="M236.603,-58.3619C241.475,-50.5131 248.238,-39.6159 254.05,-30.2527"/>
<polygon fill="midnightblue" stroke="midnightblue" points="257.139,-31.9129 259.439,-21.5707 251.191,-28.2213 257.139,-31.9129"/>
</g>
<!-- Node6 -->
<g id="node11" class="node"><title>Node6</title>
<polygon fill="white" stroke="#bfbfbf" points="305.5,-0.5 305.5,-21.5 346.5,-21.5 346.5,-0.5 305.5,-0.5"/>
<text text-anchor="middle" x="326" y="-8.5" font-family="Helvetica,sans-Serif" font-size="10.00">string</text>
</g>
<!-- Node1&#45;&gt;Node6 -->
<g id="edge10" class="edge"><title>Node1&#45;&gt;Node6</title>
<path fill="none" stroke="midnightblue" d="M247.608,-58.3619C262.223,-49.532 283.224,-36.844 299.811,-26.8224"/>
<polygon fill="midnightblue" stroke="midnightblue" points="301.754,-29.7376 308.504,-21.5707 298.135,-23.7461 301.754,-29.7376"/>
</g>
<!-- Node7 -->
<g id="node13" class="node"><title>Node7</title>
<polygon fill="white" stroke="#bfbfbf" points="364,-0.5 364,-21.5 408,-21.5 408,-0.5 364,-0.5"/>
<text text-anchor="middle" x="386" y="-8.5" font-family="Helvetica,sans-Serif" font-size="10.00">cmath</text>
</g>
<!-- Node1&#45;&gt;Node7 -->
<g id="edge12" class="edge"><title>Node1&#45;&gt;Node7</title>
<path fill="none" stroke="midnightblue" d="M258.25,-58.4966C285.269,-48.4513 325.956,-33.3241 354.122,-22.8522"/>
<polygon fill="midnightblue" stroke="midnightblue" points="355.366,-26.1238 363.519,-19.3582 352.926,-19.5626 355.366,-26.1238"/>
</g>
</g>
</svg>
