<?xml version="1.0" encoding="UTF-8" standalone="no"?>
<!DOCTYPE svg PUBLIC "-//W3C//DTD SVG 1.1//EN"
 "http://www.w3.org/Graphics/SVG/1.1/DTD/svg11.dtd">
<!-- Generated by graphviz version 2.26.3 (20100126.1600)
 -->
<!-- Title: G Pages: 1 -->
<svg width="1380pt" height="146pt"
 viewBox="0.00 0.00 1380.00 146.00" xmlns="http://www.w3.org/2000/svg" xmlns:xlink="http://www.w3.org/1999/xlink">
<g id="graph1" class="graph" transform="scale(1 1) rotate(0) translate(4 142)">
<title>G</title>
<polygon fill="white" stroke="white" points="-4,5 -4,-142 1377,-142 1377,5 -4,5"/>
<!-- Node1 -->
<g id="node1" class="node"><title>Node1</title>
<polygon fill="#bfbfbf" stroke="black" points="660,-116.5 660,-137.5 782,-137.5 782,-116.5 660,-116.5"/>
<text text-anchor="middle" x="721" y="-124.5" font-family="Helvetica,sans-Serif" font-size="10.00">include/softmax_class.h</text>
</g>
<!-- Node2 -->
<g id="node3" class="node"><title>Node2</title>
<a xlink:href="gpu_2src_2evaluate_8cpp.html" target="_top" xlink:title="gpu/src/evaluate.cpp">
<polygon fill="white" stroke="black" points="-0.5,-58.5 -0.5,-79.5 106.5,-79.5 106.5,-58.5 -0.5,-58.5"/>
<text text-anchor="middle" x="53" y="-66.5" font-family="Helvetica,sans-Serif" font-size="10.00">gpu/src/evaluate.cpp</text>
</a>
</g>
<!-- Node1&#45;&gt;Node2 -->
<g id="edge2" class="edge"><title>Node1&#45;&gt;Node2</title>
<path fill="none" stroke="midnightblue" d="M649.426,-123.729C535.817,-118.024 307.365,-104.464 115,-80 112.289,-79.6552 109.516,-79.2728 106.719,-78.8636"/>
<polygon fill="midnightblue" stroke="midnightblue" points="649.565,-127.24 659.726,-124.24 649.912,-120.249 649.565,-127.24"/>
</g>
<!-- Node3 -->
<g id="node5" class="node"><title>Node3</title>
<a xlink:href="gpu_2src_2online__test_8cpp.html" target="_top" xlink:title="gpu/src/online_test.cpp">
<polygon fill="white" stroke="black" points="124,-58.5 124,-79.5 242,-79.5 242,-58.5 124,-58.5"/>
<text text-anchor="middle" x="183" y="-66.5" font-family="Helvetica,sans-Serif" font-size="10.00">gpu/src/online_test.cpp</text>
</a>
</g>
<!-- Node1&#45;&gt;Node3 -->
<g id="edge4" class="edge"><title>Node1&#45;&gt;Node3</title>
<path fill="none" stroke="midnightblue" d="M649.589,-121.217C557.343,-113.436 391.877,-98.4211 251,-80 248.154,-79.6279 245.244,-79.2288 242.307,-78.8112"/>
<polygon fill="midnightblue" stroke="midnightblue" points="649.392,-124.713 659.649,-122.061 649.977,-117.737 649.392,-124.713"/>
</g>
<!-- Node4 -->
<g id="node7" class="node"><title>Node4</title>
<a xlink:href="gpu_2src_2softmax__class_8cpp.html" target="_top" xlink:title="gpu/src/softmax_class.cpp">
<polygon fill="white" stroke="black" points="260,-58.5 260,-79.5 394,-79.5 394,-58.5 260,-58.5"/>
<text text-anchor="middle" x="327" y="-66.5" font-family="Helvetica,sans-Serif" font-size="10.00">gpu/src/softmax_class.cpp</text>
</a>
</g>
<!-- Node1&#45;&gt;Node4 -->
<g id="edge6" class="edge"><title>Node1&#45;&gt;Node4</title>
<path fill="none" stroke="midnightblue" d="M649.892,-116.532C577.277,-105.843 465.388,-89.3718 394.216,-78.8948"/>
<polygon fill="midnightblue" stroke="midnightblue" points="649.467,-120.007 659.87,-118.001 650.486,-113.082 649.467,-120.007"/>
</g>
<!-- Node5 -->
<g id="node9" class="node"><title>Node5</title>
<a xlink:href="gpu_2src_2test_8cpp.html" target="_top" xlink:title="gpu/src/test.cpp">
<polygon fill="white" stroke="black" points="411.5,-58.5 411.5,-79.5 498.5,-79.5 498.5,-58.5 411.5,-58.5"/>
<text text-anchor="middle" x="455" y="-66.5" font-family="Helvetica,sans-Serif" font-size="10.00">gpu/src/test.cpp</text>
</a>
</g>
<!-- Node1&#45;&gt;Node5 -->
<g id="edge8" class="edge"><title>Node1&#45;&gt;Node5</title>
<path fill="none" stroke="midnightblue" d="M662.926,-114.337C613.529,-103.566 543.664,-88.3328 498.842,-78.5595"/>
<polygon fill="midnightblue" stroke="midnightblue" points="662.313,-117.786 672.829,-116.497 663.805,-110.947 662.313,-117.786"/>
</g>
<!-- Node6 -->
<g id="node11" class="node"><title>Node6</title>
<a xlink:href="gpu_2src_2train_8cpp.html" target="_top" xlink:title="gpu/src/train.cpp">
<polygon fill="white" stroke="black" points="515.5,-58.5 515.5,-79.5 604.5,-79.5 604.5,-58.5 515.5,-58.5"/>
<text text-anchor="middle" x="560" y="-66.5" font-family="Helvetica,sans-Serif" font-size="10.00">gpu/src/train.cpp</text>
</a>
</g>
<!-- Node1&#45;&gt;Node6 -->
<g id="edge10" class="edge"><title>Node1&#45;&gt;Node6</title>
<path fill="none" stroke="midnightblue" d="M682.164,-113.009C653.553,-102.702 615.248,-88.903 589.211,-79.5231"/>
<polygon fill="midnightblue" stroke="midnightblue" points="681.25,-116.4 691.844,-116.497 683.622,-109.814 681.25,-116.4"/>
</g>
<!-- Node7 -->
<g id="node13" class="node"><title>Node7</title>
<a xlink:href="src_2evaluate_8cpp.html" target="_top" xlink:title="src/evaluate.cpp">
<polygon fill="white" stroke="black" points="621.5,-58.5 621.5,-79.5 710.5,-79.5 710.5,-58.5 621.5,-58.5"/>
<text text-anchor="middle" x="666" y="-66.5" font-family="Helvetica,sans-Serif" font-size="10.00">src/evaluate.cpp</text>
</a>
</g>
<!-- Node1&#45;&gt;Node7 -->
<g id="edge12" class="edge"><title>Node1&#45;&gt;Node7</title>
<path fill="none" stroke="midnightblue" d="M703.77,-108.83C694.645,-99.2078 683.76,-87.7282 676.024,-79.5707"/>
<polygon fill="midnightblue" stroke="midnightblue" points="701.492,-111.514 710.912,-116.362 706.571,-106.697 701.492,-111.514"/>
</g>
<!-- Node8 -->
<g id="node15" class="node"><title>Node8</title>
<a xlink:href="src_2online__test_8cpp.html" target="_top" xlink:title="src/online_test.cpp">
<polygon fill="white" stroke="black" points="727.5,-58.5 727.5,-79.5 826.5,-79.5 826.5,-58.5 727.5,-58.5"/>
<text text-anchor="middle" x="777" y="-66.5" font-family="Helvetica,sans-Serif" font-size="10.00">src/online_test.cpp</text>
</a>
</g>
<!-- Node1&#45;&gt;Node8 -->
<g id="edge14" class="edge"><title>Node1&#45;&gt;Node8</title>
<path fill="none" stroke="midnightblue" d="M738.265,-109.118C747.612,-99.4377 758.839,-87.8098 766.794,-79.5707"/>
<polygon fill="midnightblue" stroke="midnightblue" points="735.699,-106.737 731.271,-116.362 740.735,-111.599 735.699,-106.737"/>
</g>
<!-- Node9 -->
<g id="node17" class="node"><title>Node9</title>
<a xlink:href="src_2softmax__class_8cpp.html" target="_top" xlink:title="src/softmax_class.cpp">
<polygon fill="white" stroke="black" points="844,-58.5 844,-79.5 960,-79.5 960,-58.5 844,-58.5"/>
<text text-anchor="middle" x="902" y="-66.5" font-family="Helvetica,sans-Serif" font-size="10.00">src/softmax_class.cpp</text>
</a>
</g>
<!-- Node1&#45;&gt;Node9 -->
<g id="edge16" class="edge"><title>Node1&#45;&gt;Node9</title>
<path fill="none" stroke="midnightblue" d="M763.402,-113.413C795.695,-103.065 839.506,-89.0258 869.161,-79.5231"/>
<polygon fill="midnightblue" stroke="midnightblue" points="762.233,-110.112 753.778,-116.497 764.369,-116.778 762.233,-110.112"/>
</g>
<!-- Node11 -->
<g id="node21" class="node"><title>Node11</title>
<a xlink:href="src_2test_8cpp.html" target="_top" xlink:title="src/test.cpp">
<polygon fill="white" stroke="black" points="978,-58.5 978,-79.5 1046,-79.5 1046,-58.5 978,-58.5"/>
<text text-anchor="middle" x="1012" y="-66.5" font-family="Helvetica,sans-Serif" font-size="10.00">src/test.cpp</text>
</a>
</g>
<!-- Node1&#45;&gt;Node11 -->
<g id="edge20" class="edge"><title>Node1&#45;&gt;Node11</title>
<path fill="none" stroke="midnightblue" d="M792.124,-114.751C841.835,-105.89 909.671,-93.1966 969,-80 971.858,-79.3642 974.815,-78.6748 977.779,-77.9617"/>
<polygon fill="midnightblue" stroke="midnightblue" points="791.351,-111.333 782.116,-116.527 792.574,-118.226 791.351,-111.333"/>
</g>
<!-- Node12 -->
<g id="node23" class="node"><title>Node12</title>
<a xlink:href="src_2train_8cpp.html" target="_top" xlink:title="src/train.cpp">
<polygon fill="white" stroke="black" points="1063.5,-58.5 1063.5,-79.5 1134.5,-79.5 1134.5,-58.5 1063.5,-58.5"/>
<text text-anchor="middle" x="1099" y="-66.5" font-family="Helvetica,sans-Serif" font-size="10.00">src/train.cpp</text>
</a>
</g>
<!-- Node1&#45;&gt;Node12 -->
<g id="edge22" class="edge"><title>Node1&#45;&gt;Node12</title>
<path fill="none" stroke="midnightblue" d="M792.422,-119.155C860.297,-111.18 965.067,-97.5189 1055,-80 1057.63,-79.4881 1060.33,-78.9182 1063.05,-78.3146"/>
<polygon fill="midnightblue" stroke="midnightblue" points="791.796,-115.704 782.268,-120.338 792.606,-122.657 791.796,-115.704"/>
</g>
<!-- Node13 -->
<g id="node25" class="node"><title>Node13</title>
<a xlink:href="validate_8cpp.html" target="_top" xlink:title="src/validate.cpp">
<polygon fill="white" stroke="black" points="1152,-58.5 1152,-79.5 1238,-79.5 1238,-58.5 1152,-58.5"/>
<text text-anchor="middle" x="1195" y="-66.5" font-family="Helvetica,sans-Serif" font-size="10.00">src/validate.cpp</text>
</a>
</g>
<!-- Node1&#45;&gt;Node13 -->
<g id="edge24" class="edge"><title>Node1&#45;&gt;Node13</title>
<path fill="none" stroke="midnightblue" d="M792.26,-121.2C876.391,-113.859 1020.39,-99.7484 1143,-80 1145.92,-79.5305 1148.91,-79.0064 1151.93,-78.4489"/>
<polygon fill="midnightblue" stroke="midnightblue" points="791.712,-117.734 782.051,-122.083 792.315,-124.708 791.712,-117.734"/>
</g>
<!-- Node14 -->
<g id="node27" class="node"><title>Node14</title>
<a xlink:href="test_2gtest__softmax_8cpp.html" target="_top" xlink:title="test/gtest_softmax.cpp">
<polygon fill="white" stroke="black" points="1255.5,-58.5 1255.5,-79.5 1372.5,-79.5 1372.5,-58.5 1255.5,-58.5"/>
<text text-anchor="middle" x="1314" y="-66.5" font-family="Helvetica,sans-Serif" font-size="10.00">test/gtest_softmax.cpp</text>
</a>
</g>
<!-- Node1&#45;&gt;Node14 -->
<g id="edge26" class="edge"><title>Node1&#45;&gt;Node14</title>
<path fill="none" stroke="midnightblue" d="M792.42,-122.293C893.756,-115.234 1084.98,-100.511 1247,-80 1249.69,-79.6595 1252.44,-79.2914 1255.21,-78.9034"/>
<polygon fill="midnightblue" stroke="midnightblue" points="792.036,-118.811 782.302,-122.993 792.52,-125.794 792.036,-118.811"/>
</g>
<!-- Node10 -->
<g id="node19" class="node"><title>Node10</title>
<a xlink:href="gtest__softmax_8cpp.html" target="_top" xlink:title="gtest_softmax.cpp">
<polygon fill="white" stroke="black" points="853,-0.5 853,-21.5 951,-21.5 951,-0.5 853,-0.5"/>
<text text-anchor="middle" x="902" y="-8.5" font-family="Helvetica,sans-Serif" font-size="10.00">gtest_softmax.cpp</text>
</a>
</g>
<!-- Node9&#45;&gt;Node10 -->
<g id="edge18" class="edge"><title>Node9&#45;&gt;Node10</title>
<path fill="none" stroke="midnightblue" d="M902,-48.1906C902,-39.1684 902,-28.9941 902,-21.5707"/>
<polygon fill="midnightblue" stroke="midnightblue" points="898.5,-48.3619 902,-58.3619 905.5,-48.3619 898.5,-48.3619"/>
</g>
</g>
</svg>
