<?xml version="1.0" encoding="UTF-8" standalone="no"?>
<!DOCTYPE svg PUBLIC "-//W3C//DTD SVG 1.1//EN"
 "http://www.w3.org/Graphics/SVG/1.1/DTD/svg11.dtd">
<!-- Generated by graphviz version 2.26.3 (20100126.1600)
 -->
<!-- Title: G Pages: 1 -->
<svg width="542pt" height="88pt"
 viewBox="0.00 0.00 542.00 88.00" xmlns="http://www.w3.org/2000/svg" xmlns:xlink="http://www.w3.org/1999/xlink">
<g id="graph1" class="graph" transform="scale(1 1) rotate(0) translate(4 84)">
<title>G</title>
<polygon fill="white" stroke="white" points="-4,5 -4,-84 539,-84 539,5 -4,5"/>
<!-- Node1 -->
<g id="node1" class="node"><title>Node1</title>
<polygon fill="#bfbfbf" stroke="black" points="238.5,-58.5 238.5,-79.5 345.5,-79.5 345.5,-58.5 238.5,-58.5"/>
<text text-anchor="middle" x="292" y="-66.5" font-family="Helvetica,sans-Serif" font-size="10.00">include/preprocess.h</text>
</g>
<!-- Node2 -->
<g id="node3" class="node"><title>Node2</title>
<a xlink:href="gpu_2src_2preprocess_8cpp.html" target="_top" xlink:title="gpu/src/preprocess.cpp">
<polygon fill="white" stroke="black" points="-0.5,-0.5 -0.5,-21.5 118.5,-21.5 118.5,-0.5 -0.5,-0.5"/>
<text text-anchor="middle" x="59" y="-8.5" font-family="Helvetica,sans-Serif" font-size="10.00">gpu/src/preprocess.cpp</text>
</a>
</g>
<!-- Node1&#45;&gt;Node2 -->
<g id="edge2" class="edge"><title>Node1&#45;&gt;Node2</title>
<path fill="none" stroke="midnightblue" d="M240.084,-56.0766C198.285,-45.6718 140.271,-31.2306 101.274,-21.5231"/>
<polygon fill="midnightblue" stroke="midnightblue" points="239.256,-59.4774 249.805,-58.4966 240.947,-52.6847 239.256,-59.4774"/>
</g>
<!-- Node3 -->
<g id="node5" class="node"><title>Node3</title>
<a xlink:href="gpu_2src_2train_8cpp.html" target="_top" xlink:title="gpu/src/train.cpp">
<polygon fill="white" stroke="black" points="135.5,-0.5 135.5,-21.5 224.5,-21.5 224.5,-0.5 135.5,-0.5"/>
<text text-anchor="middle" x="180" y="-8.5" font-family="Helvetica,sans-Serif" font-size="10.00">gpu/src/train.cpp</text>
</a>
</g>
<!-- Node1&#45;&gt;Node3 -->
<g id="edge4" class="edge"><title>Node1&#45;&gt;Node3</title>
<path fill="none" stroke="midnightblue" d="M262.637,-53.794C243.096,-43.6746 217.914,-30.6338 200.51,-21.6212"/>
<polygon fill="midnightblue" stroke="midnightblue" points="261.228,-57.006 271.718,-58.4966 264.447,-50.7901 261.228,-57.006"/>
</g>
<!-- Node4 -->
<g id="node7" class="node"><title>Node4</title>
<a xlink:href="src_2preprocess_8cpp.html" target="_top" xlink:title="src/preprocess.cpp">
<polygon fill="white" stroke="black" points="242,-0.5 242,-21.5 342,-21.5 342,-0.5 242,-0.5"/>
<text text-anchor="middle" x="292" y="-8.5" font-family="Helvetica,sans-Serif" font-size="10.00">src/preprocess.cpp</text>
</a>
</g>
<!-- Node1&#45;&gt;Node4 -->
<g id="edge6" class="edge"><title>Node1&#45;&gt;Node4</title>
<path fill="none" stroke="midnightblue" d="M292,-48.1906C292,-39.1684 292,-28.9941 292,-21.5707"/>
<polygon fill="midnightblue" stroke="midnightblue" points="288.5,-48.3619 292,-58.3619 295.5,-48.3619 288.5,-48.3619"/>
</g>
<!-- Node5 -->
<g id="node9" class="node"><title>Node5</title>
<a xlink:href="src_2train_8cpp.html" target="_top" xlink:title="src/train.cpp">
<polygon fill="white" stroke="black" points="359.5,-0.5 359.5,-21.5 430.5,-21.5 430.5,-0.5 359.5,-0.5"/>
<text text-anchor="middle" x="395" y="-8.5" font-family="Helvetica,sans-Serif" font-size="10.00">src/train.cpp</text>
</a>
</g>
<!-- Node1&#45;&gt;Node5 -->
<g id="edge8" class="edge"><title>Node1&#45;&gt;Node5</title>
<path fill="none" stroke="midnightblue" d="M319.741,-53.379C337.638,-43.3011 360.437,-30.4624 376.228,-21.5707"/>
<polygon fill="midnightblue" stroke="midnightblue" points="317.888,-50.4055 310.892,-58.3619 321.323,-56.505 317.888,-50.4055"/>
</g>
<!-- Node6 -->
<g id="node11" class="node"><title>Node6</title>
<a xlink:href="validate_8cpp.html" target="_top" xlink:title="src/validate.cpp">
<polygon fill="white" stroke="black" points="448,-0.5 448,-21.5 534,-21.5 534,-0.5 448,-0.5"/>
<text text-anchor="middle" x="491" y="-8.5" font-family="Helvetica,sans-Serif" font-size="10.00">src/validate.cpp</text>
</a>
</g>
<!-- Node1&#45;&gt;Node6 -->
<g id="edge10" class="edge"><title>Node1&#45;&gt;Node6</title>
<path fill="none" stroke="midnightblue" d="M337.703,-55.6795C373.291,-45.307 422.01,-31.1078 454.895,-21.5231"/>
<polygon fill="midnightblue" stroke="midnightblue" points="336.659,-52.3382 328.037,-58.4966 338.617,-59.0586 336.659,-52.3382"/>
</g>
</g>
</svg>
