<?xml version="1.0" encoding="UTF-8" standalone="no"?>
<!DOCTYPE svg PUBLIC "-//W3C//DTD SVG 1.1//EN"
 "http://www.w3.org/Graphics/SVG/1.1/DTD/svg11.dtd">
<!-- Generated by graphviz version 2.26.3 (20100126.1600)
 -->
<!-- Title: G Pages: 1 -->
<svg width="772pt" height="88pt"
 viewBox="0.00 0.00 772.00 88.00" xmlns="http://www.w3.org/2000/svg" xmlns:xlink="http://www.w3.org/1999/xlink">
<g id="graph1" class="graph" transform="scale(1 1) rotate(0) translate(4 84)">
<title>G</title>
<polygon fill="white" stroke="white" points="-4,5 -4,-84 769,-84 769,5 -4,5"/>
<!-- Node1 -->
<g id="node1" class="node"><title>Node1</title>
<polygon fill="#bfbfbf" stroke="black" points="359.5,-58.5 359.5,-79.5 460.5,-79.5 460.5,-58.5 359.5,-58.5"/>
<text text-anchor="middle" x="410" y="-66.5" font-family="Helvetica,sans-Serif" font-size="10.00">include/load_data.h</text>
</g>
<!-- Node2 -->
<g id="node3" class="node"><title>Node2</title>
<a xlink:href="gpu_2src_2evaluate_8cpp.html" target="_top" xlink:title="gpu/src/evaluate.cpp">
<polygon fill="white" stroke="black" points="-0.5,-0.5 -0.5,-21.5 106.5,-21.5 106.5,-0.5 -0.5,-0.5"/>
<text text-anchor="middle" x="53" y="-8.5" font-family="Helvetica,sans-Serif" font-size="10.00">gpu/src/evaluate.cpp</text>
</a>
</g>
<!-- Node1&#45;&gt;Node2 -->
<g id="edge2" class="edge"><title>Node1&#45;&gt;Node2</title>
<path fill="none" stroke="midnightblue" d="M349.315,-59.651C289.639,-50.382 195.977,-35.6331 115,-22 112.305,-21.5463 109.545,-21.0762 106.758,-20.5975"/>
<polygon fill="midnightblue" stroke="midnightblue" points="348.903,-63.1289 359.322,-61.2033 349.976,-56.2116 348.903,-63.1289"/>
</g>
<!-- Node3 -->
<g id="node5" class="node"><title>Node3</title>
<a xlink:href="gpu_2src_2preprocess_8cpp.html" target="_top" xlink:title="gpu/src/preprocess.cpp">
<polygon fill="white" stroke="black" points="123.5,-0.5 123.5,-21.5 242.5,-21.5 242.5,-0.5 123.5,-0.5"/>
<text text-anchor="middle" x="183" y="-8.5" font-family="Helvetica,sans-Serif" font-size="10.00">gpu/src/preprocess.cpp</text>
</a>
</g>
<!-- Node1&#45;&gt;Node3 -->
<g id="edge4" class="edge"><title>Node1&#45;&gt;Node3</title>
<path fill="none" stroke="midnightblue" d="M359.162,-56.0107C318.46,-45.6109 262.098,-31.2102 224.185,-21.5231"/>
<polygon fill="midnightblue" stroke="midnightblue" points="358.337,-59.4121 368.892,-58.4966 360.07,-52.63 358.337,-59.4121"/>
</g>
<!-- Node4 -->
<g id="node7" class="node"><title>Node4</title>
<a xlink:href="gpu_2src_2train_8cpp.html" target="_top" xlink:title="gpu/src/train.cpp">
<polygon fill="white" stroke="black" points="259.5,-0.5 259.5,-21.5 348.5,-21.5 348.5,-0.5 259.5,-0.5"/>
<text text-anchor="middle" x="304" y="-8.5" font-family="Helvetica,sans-Serif" font-size="10.00">gpu/src/train.cpp</text>
</a>
</g>
<!-- Node1&#45;&gt;Node4 -->
<g id="edge6" class="edge"><title>Node1&#45;&gt;Node4</title>
<path fill="none" stroke="midnightblue" d="M381.704,-53.5175C363.248,-43.4189 339.644,-30.5032 323.319,-21.5707"/>
<polygon fill="midnightblue" stroke="midnightblue" points="380.105,-56.6322 390.558,-58.3619 383.465,-50.4913 380.105,-56.6322"/>
</g>
<!-- Node5 -->
<g id="node9" class="node"><title>Node5</title>
<a xlink:href="src_2evaluate_8cpp.html" target="_top" xlink:title="src/evaluate.cpp">
<polygon fill="white" stroke="black" points="365.5,-0.5 365.5,-21.5 454.5,-21.5 454.5,-0.5 365.5,-0.5"/>
<text text-anchor="middle" x="410" y="-8.5" font-family="Helvetica,sans-Serif" font-size="10.00">src/evaluate.cpp</text>
</a>
</g>
<!-- Node1&#45;&gt;Node5 -->
<g id="edge8" class="edge"><title>Node1&#45;&gt;Node5</title>
<path fill="none" stroke="midnightblue" d="M410,-48.1906C410,-39.1684 410,-28.9941 410,-21.5707"/>
<polygon fill="midnightblue" stroke="midnightblue" points="406.5,-48.3619 410,-58.3619 413.5,-48.3619 406.5,-48.3619"/>
</g>
<!-- Node6 -->
<g id="node11" class="node"><title>Node6</title>
<a xlink:href="src_2preprocess_8cpp.html" target="_top" xlink:title="src/preprocess.cpp">
<polygon fill="white" stroke="black" points="472,-0.5 472,-21.5 572,-21.5 572,-0.5 472,-0.5"/>
<text text-anchor="middle" x="522" y="-8.5" font-family="Helvetica,sans-Serif" font-size="10.00">src/preprocess.cpp</text>
</a>
</g>
<!-- Node1&#45;&gt;Node6 -->
<g id="edge10" class="edge"><title>Node1&#45;&gt;Node6</title>
<path fill="none" stroke="midnightblue" d="M439.363,-53.794C458.904,-43.6746 484.086,-30.6338 501.49,-21.6212"/>
<polygon fill="midnightblue" stroke="midnightblue" points="437.553,-50.7901 430.282,-58.4966 440.772,-57.006 437.553,-50.7901"/>
</g>
<!-- Node7 -->
<g id="node13" class="node"><title>Node7</title>
<a xlink:href="src_2train_8cpp.html" target="_top" xlink:title="src/train.cpp">
<polygon fill="white" stroke="black" points="589.5,-0.5 589.5,-21.5 660.5,-21.5 660.5,-0.5 589.5,-0.5"/>
<text text-anchor="middle" x="625" y="-8.5" font-family="Helvetica,sans-Serif" font-size="10.00">src/train.cpp</text>
</a>
</g>
<!-- Node1&#45;&gt;Node7 -->
<g id="edge12" class="edge"><title>Node1&#45;&gt;Node7</title>
<path fill="none" stroke="midnightblue" d="M458.67,-55.8705C498.353,-45.1651 553.493,-30.2902 589.212,-20.6543"/>
<polygon fill="midnightblue" stroke="midnightblue" points="457.678,-52.5128 448.935,-58.4966 459.501,-59.2712 457.678,-52.5128"/>
</g>
<!-- Node8 -->
<g id="node15" class="node"><title>Node8</title>
<a xlink:href="validate_8cpp.html" target="_top" xlink:title="src/validate.cpp">
<polygon fill="white" stroke="black" points="678,-0.5 678,-21.5 764,-21.5 764,-0.5 678,-0.5"/>
<text text-anchor="middle" x="721" y="-8.5" font-family="Helvetica,sans-Serif" font-size="10.00">src/validate.cpp</text>
</a>
</g>
<!-- Node1&#45;&gt;Node8 -->
<g id="edge14" class="edge"><title>Node1&#45;&gt;Node8</title>
<path fill="none" stroke="midnightblue" d="M470.863,-58.468C523.409,-49.2529 601.316,-35.2972 669,-22 671.897,-21.4308 674.883,-20.832 677.889,-20.2199"/>
<polygon fill="midnightblue" stroke="midnightblue" points="469.95,-55.0747 460.703,-60.2463 471.157,-61.9699 469.95,-55.0747"/>
</g>
</g>
</svg>
