<?xml version="1.0" encoding="UTF-8" standalone="no"?>
<!DOCTYPE svg PUBLIC "-//W3C//DTD SVG 1.1//EN"
 "http://www.w3.org/Graphics/SVG/1.1/DTD/svg11.dtd">
<!-- Generated by graphviz version 2.26.3 (20100126.1600)
 -->
<!-- Title: G Pages: 1 -->
<svg width="428pt" height="146pt"
 viewBox="0.00 0.00 428.00 146.00" xmlns="http://www.w3.org/2000/svg" xmlns:xlink="http://www.w3.org/1999/xlink">
<g id="graph1" class="graph" transform="scale(1 1) rotate(0) translate(4 142)">
<title>G</title>
<polygon fill="white" stroke="white" points="-4,5 -4,-142 425,-142 425,5 -4,5"/>
<!-- Node1 -->
<g id="node1" class="node"><title>Node1</title>
<polygon fill="#bfbfbf" stroke="black" points="139,-116.5 139,-137.5 235,-137.5 235,-116.5 139,-116.5"/>
<text text-anchor="middle" x="187" y="-124.5" font-family="Helvetica,sans-Serif" font-size="10.00">src/save_load.cpp</text>
</g>
<!-- Node2 -->
<g id="node3" class="node"><title>Node2</title>
<polygon fill="white" stroke="#bfbfbf" points="234,-0.5 234,-21.5 288,-21.5 288,-0.5 234,-0.5"/>
<text text-anchor="middle" x="261" y="-8.5" font-family="Helvetica,sans-Serif" font-size="10.00">iostream</text>
</g>
<!-- Node1&#45;&gt;Node2 -->
<g id="edge2" class="edge"><title>Node1&#45;&gt;Node2</title>
<path fill="none" stroke="midnightblue" d="M193.829,-116.295C206.329,-96.6998 233.046,-54.8198 248.757,-30.1913"/>
<polygon fill="midnightblue" stroke="midnightblue" points="251.76,-31.9922 254.187,-21.6792 245.858,-28.2275 251.76,-31.9922"/>
</g>
<!-- Node3 -->
<g id="node5" class="node"><title>Node3</title>
<polygon fill="white" stroke="#bfbfbf" points="143.5,-0.5 143.5,-21.5 216.5,-21.5 216.5,-0.5 143.5,-0.5"/>
<text text-anchor="middle" x="180" y="-8.5" font-family="Helvetica,sans-Serif" font-size="10.00">Eigen/Dense</text>
</g>
<!-- Node1&#45;&gt;Node3 -->
<g id="edge4" class="edge"><title>Node1&#45;&gt;Node3</title>
<path fill="none" stroke="midnightblue" d="M189.094,-116.209C191.433,-102.599 194.575,-78.497 192,-58 190.89,-49.169 188.652,-39.619 186.405,-31.4488"/>
<polygon fill="midnightblue" stroke="midnightblue" points="189.714,-30.2916 183.542,-21.6797 182.996,-32.2604 189.714,-30.2916"/>
</g>
<!-- Node4 -->
<g id="node7" class="node"><title>Node4</title>
<polygon fill="white" stroke="#bfbfbf" points="142.5,-58.5 142.5,-79.5 183.5,-79.5 183.5,-58.5 142.5,-58.5"/>
<text text-anchor="middle" x="163" y="-66.5" font-family="Helvetica,sans-Serif" font-size="10.00">string</text>
</g>
<!-- Node1&#45;&gt;Node4 -->
<g id="edge6" class="edge"><title>Node1&#45;&gt;Node4</title>
<path fill="none" stroke="midnightblue" d="M182.598,-116.362C179.418,-108.677 175.028,-98.0686 171.21,-88.8399"/>
<polygon fill="midnightblue" stroke="midnightblue" points="174.432,-87.4726 167.374,-79.5707 167.964,-90.1491 174.432,-87.4726"/>
</g>
<!-- Node5 -->
<g id="node9" class="node"><title>Node5</title>
<polygon fill="white" stroke="#bfbfbf" points="0,-0.5 0,-21.5 44,-21.5 44,-0.5 0,-0.5"/>
<text text-anchor="middle" x="22" y="-8.5" font-family="Helvetica,sans-Serif" font-size="10.00">vector</text>
</g>
<!-- Node1&#45;&gt;Node5 -->
<g id="edge8" class="edge"><title>Node1&#45;&gt;Node5</title>
<path fill="none" stroke="midnightblue" d="M138.776,-121.247C109.206,-115.397 72.4561,-103.631 48,-80 34.74,-67.1871 28.1705,-46.9488 24.9605,-31.6971"/>
<polygon fill="midnightblue" stroke="midnightblue" points="28.3702,-30.8808 23.1692,-21.6504 21.4789,-32.1095 28.3702,-30.8808"/>
</g>
<!-- Node6 -->
<g id="node11" class="node"><title>Node6</title>
<a xlink:href="save__load_8h.html" target="_top" xlink:title="save_load.h">
<polygon fill="white" stroke="black" points="56.5,-58.5 56.5,-79.5 125.5,-79.5 125.5,-58.5 56.5,-58.5"/>
<text text-anchor="middle" x="91" y="-66.5" font-family="Helvetica,sans-Serif" font-size="10.00">save_load.h</text>
</a>
</g>
<!-- Node1&#45;&gt;Node6 -->
<g id="edge10" class="edge"><title>Node1&#45;&gt;Node6</title>
<path fill="none" stroke="midnightblue" d="M169.392,-116.362C154.777,-107.532 133.776,-94.844 117.189,-84.8224"/>
<polygon fill="midnightblue" stroke="midnightblue" points="118.865,-81.7461 108.496,-79.5707 115.246,-87.7376 118.865,-81.7461"/>
</g>
<!-- Node8 -->
<g id="node17" class="node"><title>Node8</title>
<a xlink:href="read__write_8h.html" target="_top" xlink:title="read_write.h">
<polygon fill="white" stroke="black" points="277,-58.5 277,-79.5 347,-79.5 347,-58.5 277,-58.5"/>
<text text-anchor="middle" x="312" y="-66.5" font-family="Helvetica,sans-Serif" font-size="10.00">read_write.h</text>
</a>
</g>
<!-- Node1&#45;&gt;Node8 -->
<g id="edge18" class="edge"><title>Node1&#45;&gt;Node8</title>
<path fill="none" stroke="midnightblue" d="M209.637,-116.497C229.248,-107.397 257.846,-94.1273 279.833,-83.9253"/>
<polygon fill="midnightblue" stroke="midnightblue" points="281.512,-87.0051 289.109,-79.6212 278.565,-80.6554 281.512,-87.0051"/>
</g>
<!-- Node6&#45;&gt;Node3 -->
<g id="edge12" class="edge"><title>Node6&#45;&gt;Node3</title>
<path fill="none" stroke="midnightblue" d="M107.324,-58.3619C120.748,-49.6138 139.983,-37.0786 155.293,-27.1015"/>
<polygon fill="midnightblue" stroke="midnightblue" points="157.312,-29.9628 163.78,-21.5707 153.491,-24.0982 157.312,-29.9628"/>
</g>
<!-- Node6&#45;&gt;Node5 -->
<g id="edge16" class="edge"><title>Node6&#45;&gt;Node5</title>
<path fill="none" stroke="midnightblue" d="M78.3443,-58.3619C68.3261,-49.9408 54.1332,-38.0105 42.4987,-28.2308"/>
<polygon fill="midnightblue" stroke="midnightblue" points="44.4824,-25.326 34.5754,-21.5707 39.9782,-30.6844 44.4824,-25.326"/>
</g>
<!-- Node7 -->
<g id="node14" class="node"><title>Node7</title>
<polygon fill="white" stroke="#bfbfbf" points="61.5,-0.5 61.5,-21.5 126.5,-21.5 126.5,-0.5 61.5,-0.5"/>
<text text-anchor="middle" x="94" y="-8.5" font-family="Helvetica,sans-Serif" font-size="10.00">Eigen/Core</text>
</g>
<!-- Node6&#45;&gt;Node7 -->
<g id="edge14" class="edge"><title>Node6&#45;&gt;Node7</title>
<path fill="none" stroke="midnightblue" d="M91.5502,-58.3619C91.9351,-50.9219 92.4616,-40.7427 92.9279,-31.7276"/>
<polygon fill="midnightblue" stroke="midnightblue" points="96.4319,-31.7381 93.4532,-21.5707 89.4413,-31.3765 96.4319,-31.7381"/>
</g>
<!-- Node8&#45;&gt;Node2 -->
<g id="edge20" class="edge"><title>Node8&#45;&gt;Node2</title>
<path fill="none" stroke="midnightblue" d="M302.646,-58.3619C295.457,-50.1861 285.359,-38.7025 276.907,-29.0907"/>
<polygon fill="midnightblue" stroke="midnightblue" points="279.527,-26.7692 270.295,-21.5707 274.27,-31.3916 279.527,-26.7692"/>
</g>
<!-- Node8&#45;&gt;Node3 -->
<g id="edge22" class="edge"><title>Node8&#45;&gt;Node3</title>
<path fill="none" stroke="midnightblue" d="M288.096,-58.4966C267.2,-49.3154 236.644,-35.8889 213.345,-25.6516"/>
<polygon fill="midnightblue" stroke="midnightblue" points="214.736,-22.4397 204.172,-21.6212 211.92,-28.8483 214.736,-22.4397"/>
</g>
<!-- Node9 -->
<g id="node21" class="node"><title>Node9</title>
<polygon fill="white" stroke="#bfbfbf" points="305.5,-0.5 305.5,-21.5 352.5,-21.5 352.5,-0.5 305.5,-0.5"/>
<text text-anchor="middle" x="329" y="-8.5" font-family="Helvetica,sans-Serif" font-size="10.00">iterator</text>
</g>
<!-- Node8&#45;&gt;Node9 -->
<g id="edge24" class="edge"><title>Node8&#45;&gt;Node9</title>
<path fill="none" stroke="midnightblue" d="M315.118,-58.3619C317.323,-50.8401 320.348,-40.5187 323.012,-31.4308"/>
<polygon fill="midnightblue" stroke="midnightblue" points="326.448,-32.1514 325.902,-21.5707 319.73,-30.1825 326.448,-32.1514"/>
</g>
<!-- Node10 -->
<g id="node23" class="node"><title>Node10</title>
<polygon fill="white" stroke="#bfbfbf" points="370,-0.5 370,-21.5 420,-21.5 420,-0.5 370,-0.5"/>
<text text-anchor="middle" x="395" y="-8.5" font-family="Helvetica,sans-Serif" font-size="10.00">fstream</text>
</g>
<!-- Node8&#45;&gt;Node10 -->
<g id="edge26" class="edge"><title>Node8&#45;&gt;Node10</title>
<path fill="none" stroke="midnightblue" d="M327.223,-58.3619C339.625,-49.6955 357.346,-37.3126 371.557,-27.3819"/>
<polygon fill="midnightblue" stroke="midnightblue" points="373.681,-30.1676 379.873,-21.5707 369.671,-24.4297 373.681,-30.1676"/>
</g>
</g>
</svg>
