<?xml version="1.0" encoding="UTF-8" standalone="no"?>
<!DOCTYPE svg PUBLIC "-//W3C//DTD SVG 1.1//EN"
 "http://www.w3.org/Graphics/SVG/1.1/DTD/svg11.dtd">
<!-- Generated by graphviz version 2.26.3 (20100126.1600)
 -->
<!-- Title: G Pages: 1 -->
<svg width="700pt" height="88pt"
 viewBox="0.00 0.00 700.00 88.00" xmlns="http://www.w3.org/2000/svg" xmlns:xlink="http://www.w3.org/1999/xlink">
<g id="graph1" class="graph" transform="scale(1 1) rotate(0) translate(4 84)">
<title>G</title>
<polygon fill="white" stroke="white" points="-4,5 -4,-84 697,-84 697,5 -4,5"/>
<!-- Node1 -->
<g id="node1" class="node"><title>Node1</title>
<polygon fill="#bfbfbf" stroke="black" points="316.5,-58.5 316.5,-79.5 415.5,-79.5 415.5,-58.5 316.5,-58.5"/>
<text text-anchor="middle" x="366" y="-66.5" font-family="Helvetica,sans-Serif" font-size="10.00">src/conv_layer.cpp</text>
</g>
<!-- Node2 -->
<g id="node3" class="node"><title>Node2</title>
<polygon fill="white" stroke="#bfbfbf" points="0,-0.5 0,-21.5 72,-21.5 72,-0.5 0,-0.5"/>
<text text-anchor="middle" x="36" y="-8.5" font-family="Helvetica,sans-Serif" font-size="10.00">conv_layer.h</text>
</g>
<!-- Node1&#45;&gt;Node2 -->
<g id="edge2" class="edge"><title>Node1&#45;&gt;Node2</title>
<path fill="none" stroke="midnightblue" d="M316.363,-61.988C261.394,-53.9612 169.957,-39.8361 82.1529,-22.1303"/>
<polygon fill="midnightblue" stroke="midnightblue" points="82.7929,-18.6889 72.2957,-20.1242 81.3968,-25.5483 82.7929,-18.6889"/>
</g>
<!-- Node3 -->
<g id="node5" class="node"><title>Node3</title>
<polygon fill="white" stroke="#bfbfbf" points="89.5,-0.5 89.5,-21.5 162.5,-21.5 162.5,-0.5 89.5,-0.5"/>
<text text-anchor="middle" x="126" y="-8.5" font-family="Helvetica,sans-Serif" font-size="10.00">Eigen/Dense</text>
</g>
<!-- Node1&#45;&gt;Node3 -->
<g id="edge4" class="edge"><title>Node1&#45;&gt;Node3</title>
<path fill="none" stroke="midnightblue" d="M322.233,-58.4937C284.868,-49.5145 229.422,-36.1679 172.69,-22.4061"/>
<polygon fill="midnightblue" stroke="midnightblue" points="173.378,-18.9715 162.835,-20.0143 171.727,-25.774 173.378,-18.9715"/>
</g>
<!-- Node4 -->
<g id="node7" class="node"><title>Node4</title>
<polygon fill="white" stroke="#bfbfbf" points="180,-0.5 180,-21.5 234,-21.5 234,-0.5 180,-0.5"/>
<text text-anchor="middle" x="207" y="-8.5" font-family="Helvetica,sans-Serif" font-size="10.00">iostream</text>
</g>
<!-- Node1&#45;&gt;Node4 -->
<g id="edge6" class="edge"><title>Node1&#45;&gt;Node4</title>
<path fill="none" stroke="midnightblue" d="M337.206,-58.4966C311.029,-48.9477 272.264,-34.8069 243.838,-24.4376"/>
<polygon fill="midnightblue" stroke="midnightblue" points="244.846,-21.0798 234.252,-20.9409 242.447,-27.656 244.846,-21.0798"/>
</g>
<!-- Node5 -->
<g id="node9" class="node"><title>Node5</title>
<polygon fill="white" stroke="#bfbfbf" points="252,-0.5 252,-21.5 296,-21.5 296,-0.5 252,-0.5"/>
<text text-anchor="middle" x="274" y="-8.5" font-family="Helvetica,sans-Serif" font-size="10.00">vector</text>
</g>
<!-- Node1&#45;&gt;Node5 -->
<g id="edge8" class="edge"><title>Node1&#45;&gt;Node5</title>
<path fill="none" stroke="midnightblue" d="M349.126,-58.3619C335.249,-49.6138 315.366,-37.0786 299.54,-27.1015"/>
<polygon fill="midnightblue" stroke="midnightblue" points="301.093,-23.943 290.767,-21.5707 297.36,-29.8645 301.093,-23.943"/>
</g>
<!-- Node6 -->
<g id="node11" class="node"><title>Node6</title>
<polygon fill="white" stroke="#bfbfbf" points="314,-0.5 314,-21.5 358,-21.5 358,-0.5 314,-0.5"/>
<text text-anchor="middle" x="336" y="-8.5" font-family="Helvetica,sans-Serif" font-size="10.00">cmath</text>
</g>
<!-- Node1&#45;&gt;Node6 -->
<g id="edge10" class="edge"><title>Node1&#45;&gt;Node6</title>
<path fill="none" stroke="midnightblue" d="M360.498,-58.3619C356.48,-50.5949 350.919,-39.8426 346.11,-30.5458"/>
<polygon fill="midnightblue" stroke="midnightblue" points="349.171,-28.8448 341.468,-21.5707 342.953,-32.0608 349.171,-28.8448"/>
</g>
<!-- Node7 -->
<g id="node13" class="node"><title>Node7</title>
<polygon fill="white" stroke="#bfbfbf" points="375.5,-0.5 375.5,-21.5 416.5,-21.5 416.5,-0.5 375.5,-0.5"/>
<text text-anchor="middle" x="396" y="-8.5" font-family="Helvetica,sans-Serif" font-size="10.00">ctime</text>
</g>
<!-- Node1&#45;&gt;Node7 -->
<g id="edge12" class="edge"><title>Node1&#45;&gt;Node7</title>
<path fill="none" stroke="midnightblue" d="M371.502,-58.3619C375.52,-50.5949 381.081,-39.8426 385.89,-30.5458"/>
<polygon fill="midnightblue" stroke="midnightblue" points="389.047,-32.0608 390.532,-21.5707 382.829,-28.8448 389.047,-32.0608"/>
</g>
<!-- Node8 -->
<g id="node15" class="node"><title>Node8</title>
<polygon fill="white" stroke="#bfbfbf" points="433.5,-0.5 433.5,-21.5 474.5,-21.5 474.5,-0.5 433.5,-0.5"/>
<text text-anchor="middle" x="454" y="-8.5" font-family="Helvetica,sans-Serif" font-size="10.00">string</text>
</g>
<!-- Node1&#45;&gt;Node8 -->
<g id="edge14" class="edge"><title>Node1&#45;&gt;Node8</title>
<path fill="none" stroke="midnightblue" d="M382.141,-58.3619C395.414,-49.6138 414.432,-37.0786 429.57,-27.1015"/>
<polygon fill="midnightblue" stroke="midnightblue" points="431.538,-29.9962 437.962,-21.5707 427.686,-24.1515 431.538,-29.9962"/>
</g>
<!-- Node9 -->
<g id="node17" class="node"><title>Node9</title>
<polygon fill="white" stroke="#bfbfbf" points="491.5,-0.5 491.5,-21.5 550.5,-21.5 550.5,-0.5 491.5,-0.5"/>
<text text-anchor="middle" x="521" y="-8.5" font-family="Helvetica,sans-Serif" font-size="10.00">stdexcept</text>
</g>
<!-- Node1&#45;&gt;Node9 -->
<g id="edge16" class="edge"><title>Node1&#45;&gt;Node9</title>
<path fill="none" stroke="midnightblue" d="M394.069,-58.4966C419.01,-49.1639 455.674,-35.4447 483.192,-25.1475"/>
<polygon fill="midnightblue" stroke="midnightblue" points="484.739,-28.3058 492.878,-21.5231 482.286,-21.7497 484.739,-28.3058"/>
</g>
<!-- Node10 -->
<g id="node19" class="node"><title>Node10</title>
<polygon fill="white" stroke="#bfbfbf" points="568,-0.5 568,-21.5 630,-21.5 630,-0.5 568,-0.5"/>
<text text-anchor="middle" x="599" y="-8.5" font-family="Helvetica,sans-Serif" font-size="10.00">sys/time.h</text>
</g>
<!-- Node1&#45;&gt;Node10 -->
<g id="edge18" class="edge"><title>Node1&#45;&gt;Node10</title>
<path fill="none" stroke="midnightblue" d="M410.941,-58.4521C447.975,-49.6709 502.105,-36.6321 557.886,-22.2444"/>
<polygon fill="midnightblue" stroke="midnightblue" points="558.777,-25.6292 567.581,-19.7344 557.022,-18.8527 558.777,-25.6292"/>
</g>
<!-- Node11 -->
<g id="node21" class="node"><title>Node11</title>
<polygon fill="white" stroke="#bfbfbf" points="648,-0.5 648,-21.5 692,-21.5 692,-0.5 648,-0.5"/>
<text text-anchor="middle" x="670" y="-8.5" font-family="Helvetica,sans-Serif" font-size="10.00">omp.h</text>
</g>
<!-- Node1&#45;&gt;Node11 -->
<g id="edge20" class="edge"><title>Node1&#45;&gt;Node11</title>
<path fill="none" stroke="midnightblue" d="M415.61,-63.0476C468.634,-56.1116 555.203,-43.14 637.979,-21.9478"/>
<polygon fill="midnightblue" stroke="midnightblue" points="638.996,-25.2997 647.791,-19.3918 637.231,-18.5258 638.996,-25.2997"/>
</g>
</g>
</svg>
