<?xml version="1.0" encoding="UTF-8" standalone="no"?>
<!DOCTYPE svg PUBLIC "-//W3C//DTD SVG 1.1//EN"
 "http://www.w3.org/Graphics/SVG/1.1/DTD/svg11.dtd">
<!-- Generated by graphviz version 2.26.3 (20100126.1600)
 -->
<!-- Title: G Pages: 1 -->
<svg width="420pt" height="470pt"
 viewBox="0.00 0.00 420.00 470.00" xmlns="http://www.w3.org/2000/svg" xmlns:xlink="http://www.w3.org/1999/xlink">
<g id="graph1" class="graph" transform="scale(1 1) rotate(0) translate(4 466)">
<title>G</title>
<polygon fill="white" stroke="white" points="-4,5 -4,-466 417,-466 417,5 -4,5"/>
<!-- Node1 -->
<g id="node1" class="node"><title>Node1</title>
<polygon fill="#bfbfbf" stroke="black" points="0.5,-200.5 0.5,-221.5 79.5,-221.5 79.5,-200.5 0.5,-200.5"/>
<text text-anchor="middle" x="40" y="-208.5" font-family="Helvetica,sans-Serif" font-size="10.00">training_single</text>
</g>
<!-- Node2 -->
<g id="node3" class="node"><title>Node2</title>
<a xlink:href="namespacelibcnn.html#a022f9a6378aa94ec418eb757bead690e" target="_top" xlink:title="libcnn::data_generation">
<polygon fill="white" stroke="black" points="142.5,-400.5 142.5,-421.5 259.5,-421.5 259.5,-400.5 142.5,-400.5"/>
<text text-anchor="middle" x="201" y="-408.5" font-family="Helvetica,sans-Serif" font-size="10.00">libcnn::data_generation</text>
</a>
</g>
<!-- Node1&#45;&gt;Node2 -->
<g id="edge2" class="edge"><title>Node1&#45;&gt;Node2</title>
<path fill="none" stroke="midnightblue" d="M41.2076,-221.895C45.2983,-253.361 61.5711,-345.045 116,-391 120.941,-395.172 126.595,-398.509 132.588,-401.173"/>
<polygon fill="midnightblue" stroke="midnightblue" points="131.639,-404.556 142.23,-404.829 134.121,-398.011 131.639,-404.556"/>
</g>
<!-- Node5 -->
<g id="node9" class="node"><title>Node5</title>
<a xlink:href="namespacelibcnn.html#a4afdb4ab6bfd2c2167c593900ef644f5" target="_top" xlink:title="libcnn::unit_scaling">
<polygon fill="white" stroke="black" points="151,-360.5 151,-381.5 251,-381.5 251,-360.5 151,-360.5"/>
<text text-anchor="middle" x="201" y="-368.5" font-family="Helvetica,sans-Serif" font-size="10.00">libcnn::unit_scaling</text>
</a>
</g>
<!-- Node1&#45;&gt;Node5 -->
<g id="edge8" class="edge"><title>Node1&#45;&gt;Node5</title>
<path fill="none" stroke="midnightblue" d="M42.5836,-221.744C49.5247,-248.186 71.1641,-316.755 116,-351 123.343,-356.609 132.009,-360.681 140.95,-363.629"/>
<polygon fill="midnightblue" stroke="midnightblue" points="140.135,-367.036 150.711,-366.408 142.051,-360.304 140.135,-367.036"/>
</g>
<!-- Node7 -->
<g id="node13" class="node"><title>Node7</title>
<a xlink:href="namespacelibcnn.html#a0f018efe5349302aba6f349d17cc90cf" target="_top" xlink:title="libcnn::label_sampling">
<polygon fill="white" stroke="black" points="144.5,-320.5 144.5,-341.5 257.5,-341.5 257.5,-320.5 144.5,-320.5"/>
<text text-anchor="middle" x="201" y="-328.5" font-family="Helvetica,sans-Serif" font-size="10.00">libcnn::label_sampling</text>
</a>
</g>
<!-- Node1&#45;&gt;Node7 -->
<g id="edge12" class="edge"><title>Node1&#45;&gt;Node7</title>
<path fill="none" stroke="midnightblue" d="M44.9713,-221.701C55.1702,-242.411 80.5223,-287.958 116,-311 121.723,-314.717 128.062,-317.745 134.623,-320.212"/>
<polygon fill="midnightblue" stroke="midnightblue" points="133.754,-323.612 144.348,-323.439 135.959,-316.968 133.754,-323.612"/>
</g>
<!-- Node8 -->
<g id="node15" class="node"><title>Node8</title>
<a xlink:href="namespacelibcnn.html#a449702bcc49494b8e359548d03ba12e3" target="_top" xlink:title="libcnn::rand_conv">
<polygon fill="white" stroke="black" points="154.5,-280.5 154.5,-301.5 247.5,-301.5 247.5,-280.5 154.5,-280.5"/>
<text text-anchor="middle" x="201" y="-288.5" font-family="Helvetica,sans-Serif" font-size="10.00">libcnn::rand_conv</text>
</a>
</g>
<!-- Node1&#45;&gt;Node8 -->
<g id="edge14" class="edge"><title>Node1&#45;&gt;Node8</title>
<path fill="none" stroke="midnightblue" d="M50.2892,-221.611C64.0142,-235.136 89.6574,-258.285 116,-271 124.908,-275.3 134.798,-278.707 144.589,-281.397"/>
<polygon fill="midnightblue" stroke="midnightblue" points="143.755,-284.797 154.308,-283.855 145.471,-278.01 143.755,-284.797"/>
</g>
<!-- Node9 -->
<g id="node17" class="node"><title>Node9</title>
<a xlink:href="namespacelibcnn.html#a367a409a55921d3810474a42357ff285" target="_top" xlink:title="libcnn::rand_classifier">
<polygon fill="white" stroke="black" points="145.5,-240.5 145.5,-261.5 256.5,-261.5 256.5,-240.5 145.5,-240.5"/>
<text text-anchor="middle" x="201" y="-248.5" font-family="Helvetica,sans-Serif" font-size="10.00">libcnn::rand_classifier</text>
</a>
</g>
<!-- Node1&#45;&gt;Node9 -->
<g id="edge16" class="edge"><title>Node1&#45;&gt;Node9</title>
<path fill="none" stroke="midnightblue" d="M79.395,-221.577C91.1545,-224.678 104.085,-228.031 116,-231 125.389,-233.34 135.38,-235.756 145.09,-238.065"/>
<polygon fill="midnightblue" stroke="midnightblue" points="144.532,-241.53 155.069,-240.425 146.143,-234.717 144.532,-241.53"/>
</g>
<!-- Node10 -->
<g id="node19" class="node"><title>Node10</title>
<a xlink:href="namespacelibcnn.html#a55bbe6e5488b8a038e5708a32d233090" target="_top" xlink:title="libcnn::get_feature_vector">
<polygon fill="white" stroke="black" points="136.5,-200.5 136.5,-221.5 265.5,-221.5 265.5,-200.5 136.5,-200.5"/>
<text text-anchor="middle" x="201" y="-208.5" font-family="Helvetica,sans-Serif" font-size="10.00">libcnn::get_feature_vector</text>
</a>
</g>
<!-- Node1&#45;&gt;Node10 -->
<g id="edge18" class="edge"><title>Node1&#45;&gt;Node10</title>
<path fill="none" stroke="midnightblue" d="M79.7978,-211C93.7765,-211 109.977,-211 125.895,-211"/>
<polygon fill="midnightblue" stroke="midnightblue" points="126.289,-214.5 136.289,-211 126.289,-207.5 126.289,-214.5"/>
</g>
<!-- Node11 -->
<g id="node21" class="node"><title>Node11</title>
<a xlink:href="classlibcnn_1_1_softmax.html#ae6af9e18ce2ab849d26b38a9d4a5be20" target="_top" xlink:title="libcnn::Softmax::calculation_output">
<polygon fill="white" stroke="black" points="116,-160.5 116,-181.5 286,-181.5 286,-160.5 116,-160.5"/>
<text text-anchor="middle" x="201" y="-168.5" font-family="Helvetica,sans-Serif" font-size="10.00">libcnn::Softmax::calculation_output</text>
</a>
</g>
<!-- Node1&#45;&gt;Node11 -->
<g id="edge20" class="edge"><title>Node1&#45;&gt;Node11</title>
<path fill="none" stroke="midnightblue" d="M79.395,-200.423C91.1545,-197.322 104.085,-193.969 116,-191 125.389,-188.66 135.38,-186.244 145.09,-183.935"/>
<polygon fill="midnightblue" stroke="midnightblue" points="146.143,-187.283 155.069,-181.575 144.532,-180.47 146.143,-187.283"/>
</g>
<!-- Node12 -->
<g id="node23" class="node"><title>Node12</title>
<a xlink:href="classlibcnn_1_1_softmax.html#ad52de893453032d29c6fb3bca6e9f492" target="_top" xlink:title="libcnn::Softmax::backprop">
<polygon fill="white" stroke="black" points="135.5,-120.5 135.5,-141.5 266.5,-141.5 266.5,-120.5 135.5,-120.5"/>
<text text-anchor="middle" x="201" y="-128.5" font-family="Helvetica,sans-Serif" font-size="10.00">libcnn::Softmax::backprop</text>
</a>
</g>
<!-- Node1&#45;&gt;Node12 -->
<g id="edge22" class="edge"><title>Node1&#45;&gt;Node12</title>
<path fill="none" stroke="midnightblue" d="M50.2892,-200.389C64.0142,-186.864 89.6574,-163.715 116,-151 120.949,-148.611 126.201,-146.498 131.571,-144.63"/>
<polygon fill="midnightblue" stroke="midnightblue" points="132.856,-147.894 141.323,-141.526 130.733,-141.224 132.856,-147.894"/>
</g>
<!-- Node13 -->
<g id="node25" class="node"><title>Node13</title>
<a xlink:href="namespacelibcnn.html#a78ed8e63be87c4d06bb363af95ce62ec" target="_top" xlink:title="libcnn::softmax2conv">
<polygon fill="white" stroke="black" points="146,-80.5 146,-101.5 256,-101.5 256,-80.5 146,-80.5"/>
<text text-anchor="middle" x="201" y="-88.5" font-family="Helvetica,sans-Serif" font-size="10.00">libcnn::softmax2conv</text>
</a>
</g>
<!-- Node1&#45;&gt;Node13 -->
<g id="edge24" class="edge"><title>Node1&#45;&gt;Node13</title>
<path fill="none" stroke="midnightblue" d="M44.9713,-200.299C55.1702,-179.589 80.5223,-134.042 116,-111 122.119,-107.026 128.94,-103.84 135.985,-101.285"/>
<polygon fill="midnightblue" stroke="midnightblue" points="137.229,-104.562 145.684,-98.1778 135.093,-97.8953 137.229,-104.562"/>
</g>
<!-- Node14 -->
<g id="node27" class="node"><title>Node14</title>
<a xlink:href="classlibcnn_1_1_pool.html#a7971925b58312b01b92402f6991460cd" target="_top" xlink:title="libcnn::Pool::back_prop">
<polygon fill="white" stroke="black" points="141.5,-40.5 141.5,-61.5 260.5,-61.5 260.5,-40.5 141.5,-40.5"/>
<text text-anchor="middle" x="201" y="-48.5" font-family="Helvetica,sans-Serif" font-size="10.00">libcnn::Pool::back_prop</text>
</a>
</g>
<!-- Node1&#45;&gt;Node14 -->
<g id="edge26" class="edge"><title>Node1&#45;&gt;Node14</title>
<path fill="none" stroke="midnightblue" d="M42.5836,-200.256C49.5247,-173.814 71.1641,-105.245 116,-71 120.785,-67.3451 126.132,-64.3429 131.75,-61.8788"/>
<polygon fill="midnightblue" stroke="midnightblue" points="133.299,-65.0348 141.411,-58.2197 130.819,-58.4886 133.299,-65.0348"/>
</g>
<!-- Node15 -->
<g id="node29" class="node"><title>Node15</title>
<a xlink:href="classlibcnn_1_1_conv_pool_layer.html#ab74a2227a84ff1de545dd1e69f0c8fb3" target="_top" xlink:title="libcnn::ConvPoolLayer::back_prop">
<polygon fill="white" stroke="black" points="118,-0.5 118,-21.5 284,-21.5 284,-0.5 118,-0.5"/>
<text text-anchor="middle" x="201" y="-8.5" font-family="Helvetica,sans-Serif" font-size="10.00">libcnn::ConvPoolLayer::back_prop</text>
</a>
</g>
<!-- Node1&#45;&gt;Node15 -->
<g id="edge28" class="edge"><title>Node1&#45;&gt;Node15</title>
<path fill="none" stroke="midnightblue" d="M41.2076,-200.105C45.2983,-168.639 61.5711,-76.9553 116,-31 117.976,-29.3313 120.067,-27.7962 122.248,-26.3842"/>
<polygon fill="midnightblue" stroke="midnightblue" points="123.988,-29.4212 131.055,-21.5271 120.608,-23.2915 123.988,-29.4212"/>
</g>
<!-- Node3 -->
<g id="node5" class="node"><title>Node3</title>
<a xlink:href="gpu_2include_2load__data_8h.html#a39a205061173088b2222b1d550a8787c" target="_top" xlink:title="read_image_files">
<polygon fill="white" stroke="black" points="322,-440.5 322,-461.5 412,-461.5 412,-440.5 322,-440.5"/>
<text text-anchor="middle" x="367" y="-448.5" font-family="Helvetica,sans-Serif" font-size="10.00">read_image_files</text>
</a>
</g>
<!-- Node2&#45;&gt;Node3 -->
<g id="edge4" class="edge"><title>Node2&#45;&gt;Node3</title>
<path fill="none" stroke="midnightblue" d="M244.615,-421.51C265.69,-426.588 291.176,-432.729 313.423,-438.09"/>
<polygon fill="midnightblue" stroke="midnightblue" points="312.847,-441.551 323.389,-440.491 314.487,-434.746 312.847,-441.551"/>
</g>
<!-- Node4 -->
<g id="node7" class="node"><title>Node4</title>
<a xlink:href="gpu_2include_2load__data_8h.html#a8f84dc0bbc3acab545f50ce4899348e3" target="_top" xlink:title="read_label_files">
<polygon fill="white" stroke="black" points="325,-400.5 325,-421.5 409,-421.5 409,-400.5 325,-400.5"/>
<text text-anchor="middle" x="367" y="-408.5" font-family="Helvetica,sans-Serif" font-size="10.00">read_label_files</text>
</a>
</g>
<!-- Node2&#45;&gt;Node4 -->
<g id="edge6" class="edge"><title>Node2&#45;&gt;Node4</title>
<path fill="none" stroke="midnightblue" d="M259.525,-411C277.55,-411 297.267,-411 314.834,-411"/>
<polygon fill="midnightblue" stroke="midnightblue" points="314.901,-414.5 324.901,-411 314.901,-407.5 314.901,-414.5"/>
</g>
<!-- Node6 -->
<g id="node11" class="node"><title>Node6</title>
<a xlink:href="namespacelibcnn.html#ab161d6e7087d097f72c086587a661c4a" target="_top" xlink:title="libcnn::normalize">
<polygon fill="white" stroke="black" points="322,-360.5 322,-381.5 412,-381.5 412,-360.5 322,-360.5"/>
<text text-anchor="middle" x="367" y="-368.5" font-family="Helvetica,sans-Serif" font-size="10.00">libcnn::normalize</text>
</a>
</g>
<!-- Node5&#45;&gt;Node6 -->
<g id="edge10" class="edge"><title>Node5&#45;&gt;Node6</title>
<path fill="none" stroke="midnightblue" d="M251.256,-371C270.434,-371 292.389,-371 311.986,-371"/>
<polygon fill="midnightblue" stroke="midnightblue" points="311.993,-374.5 321.993,-371 311.992,-367.5 311.993,-374.5"/>
</g>
</g>
</svg>
