<?xml version="1.0" encoding="UTF-8" standalone="no"?>
<!DOCTYPE svg PUBLIC "-//W3C//DTD SVG 1.1//EN"
 "http://www.w3.org/Graphics/SVG/1.1/DTD/svg11.dtd">
<!-- Generated by graphviz version 2.26.3 (20100126.1600)
 -->
<!-- Title: G Pages: 1 -->
<svg width="300pt" height="30pt"
 viewBox="0.00 0.00 300.00 30.00" xmlns="http://www.w3.org/2000/svg" xmlns:xlink="http://www.w3.org/1999/xlink">
<g id="graph1" class="graph" transform="scale(1 1) rotate(0) translate(4 26)">
<title>G</title>
<polygon fill="white" stroke="white" points="-4,5 -4,-26 297,-26 297,5 -4,5"/>
<!-- Node1 -->
<g id="node1" class="node"><title>Node1</title>
<polygon fill="#bfbfbf" stroke="black" points="0,-0.5 0,-21.5 56,-21.5 56,-0.5 0,-0.5"/>
<text text-anchor="middle" x="28" y="-8.5" font-family="Helvetica,sans-Serif" font-size="10.00">test_load</text>
</g>
<!-- Node2 -->
<g id="node3" class="node"><title>Node2</title>
<a xlink:href="namespacelibcnn.html#a05600c0680e871c0893560d97dce3179" target="_top" xlink:title="libcnn::load">
<polygon fill="white" stroke="black" points="92,-0.5 92,-21.5 158,-21.5 158,-0.5 92,-0.5"/>
<text text-anchor="middle" x="125" y="-8.5" font-family="Helvetica,sans-Serif" font-size="10.00">libcnn::load</text>
</a>
</g>
<!-- Node1&#45;&gt;Node2 -->
<g id="edge2" class="edge"><title>Node1&#45;&gt;Node2</title>
<path fill="none" stroke="midnightblue" d="M56.0564,-11C64.0996,-11 73.061,-11 81.791,-11"/>
<polygon fill="midnightblue" stroke="midnightblue" points="81.864,-14.5001 91.864,-11 81.864,-7.5001 81.864,-14.5001"/>
</g>
<!-- Node3 -->
<g id="node5" class="node"><title>Node3</title>
<a xlink:href="namespacelibcnn.html#a08fddcf34488abeb9551fa4ba5f69b02" target="_top" xlink:title="libcnn::read_binary">
<polygon fill="white" stroke="black" points="194,-0.5 194,-21.5 292,-21.5 292,-0.5 194,-0.5"/>
<text text-anchor="middle" x="243" y="-8.5" font-family="Helvetica,sans-Serif" font-size="10.00">libcnn::read_binary</text>
</a>
</g>
<!-- Node2&#45;&gt;Node3 -->
<g id="edge4" class="edge"><title>Node2&#45;&gt;Node3</title>
<path fill="none" stroke="midnightblue" d="M158.184,-11C166.121,-11 174.834,-11 183.561,-11"/>
<polygon fill="midnightblue" stroke="midnightblue" points="183.765,-14.5001 193.765,-11 183.765,-7.5001 183.765,-14.5001"/>
</g>
</g>
</svg>
