<?xml version="1.0" encoding="UTF-8" standalone="no"?>
<!DOCTYPE svg PUBLIC "-//W3C//DTD SVG 1.1//EN"
 "http://www.w3.org/Graphics/SVG/1.1/DTD/svg11.dtd">
<!-- Generated by graphviz version 2.26.3 (20100126.1600)
 -->
<!-- Title: G Pages: 1 -->
<svg width="484pt" height="88pt"
 viewBox="0.00 0.00 484.00 88.00" xmlns="http://www.w3.org/2000/svg" xmlns:xlink="http://www.w3.org/1999/xlink">
<g id="graph1" class="graph" transform="scale(1 1) rotate(0) translate(4 84)">
<title>G</title>
<polygon fill="white" stroke="white" points="-4,5 -4,-84 481,-84 481,5 -4,5"/>
<!-- Node1 -->
<g id="node1" class="node"><title>Node1</title>
<polygon fill="#bfbfbf" stroke="black" points="200.5,-58.5 200.5,-79.5 307.5,-79.5 307.5,-58.5 200.5,-58.5"/>
<text text-anchor="middle" x="254" y="-66.5" font-family="Helvetica,sans-Serif" font-size="10.00">src/read_dat_file.cpp</text>
</g>
<!-- Node2 -->
<g id="node3" class="node"><title>Node2</title>
<polygon fill="white" stroke="#bfbfbf" points="0,-0.5 0,-21.5 54,-21.5 54,-0.5 0,-0.5"/>
<text text-anchor="middle" x="27" y="-8.5" font-family="Helvetica,sans-Serif" font-size="10.00">iostream</text>
</g>
<!-- Node1&#45;&gt;Node2 -->
<g id="edge2" class="edge"><title>Node1&#45;&gt;Node2</title>
<path fill="none" stroke="midnightblue" d="M208.278,-58.4987C171.668,-49.9213 118.791,-37.1571 63.9721,-22.1725"/>
<polygon fill="midnightblue" stroke="midnightblue" points="64.6503,-18.729 54.08,-19.4498 62.7927,-25.4781 64.6503,-18.729"/>
</g>
<!-- Node3 -->
<g id="node5" class="node"><title>Node3</title>
<polygon fill="white" stroke="#bfbfbf" points="72,-0.5 72,-21.5 122,-21.5 122,-0.5 72,-0.5"/>
<text text-anchor="middle" x="97" y="-8.5" font-family="Helvetica,sans-Serif" font-size="10.00">fstream</text>
</g>
<!-- Node1&#45;&gt;Node3 -->
<g id="edge4" class="edge"><title>Node1&#45;&gt;Node3</title>
<path fill="none" stroke="midnightblue" d="M225.568,-58.4966C199.167,-48.7433 159.798,-34.1993 131.586,-23.777"/>
<polygon fill="midnightblue" stroke="midnightblue" points="132.705,-20.4593 122.112,-20.277 130.279,-27.0255 132.705,-20.4593"/>
</g>
<!-- Node4 -->
<g id="node7" class="node"><title>Node4</title>
<polygon fill="white" stroke="#bfbfbf" points="139.5,-0.5 139.5,-21.5 212.5,-21.5 212.5,-0.5 139.5,-0.5"/>
<text text-anchor="middle" x="176" y="-8.5" font-family="Helvetica,sans-Serif" font-size="10.00">Eigen/Dense</text>
</g>
<!-- Node1&#45;&gt;Node4 -->
<g id="edge6" class="edge"><title>Node1&#45;&gt;Node4</title>
<path fill="none" stroke="midnightblue" d="M239.694,-58.3619C228.149,-49.7773 211.7,-37.5459 198.41,-27.6636"/>
<polygon fill="midnightblue" stroke="midnightblue" points="200.329,-24.7291 190.216,-21.5707 196.152,-30.3463 200.329,-24.7291"/>
</g>
<!-- Node5 -->
<g id="node9" class="node"><title>Node5</title>
<polygon fill="white" stroke="#bfbfbf" points="230,-0.5 230,-21.5 278,-21.5 278,-0.5 230,-0.5"/>
<text text-anchor="middle" x="254" y="-8.5" font-family="Helvetica,sans-Serif" font-size="10.00">stdlib.h</text>
</g>
<!-- Node1&#45;&gt;Node5 -->
<g id="edge8" class="edge"><title>Node1&#45;&gt;Node5</title>
<path fill="none" stroke="midnightblue" d="M254,-58.3619C254,-50.9219 254,-40.7427 254,-31.7276"/>
<polygon fill="midnightblue" stroke="midnightblue" points="257.5,-31.5706 254,-21.5707 250.5,-31.5707 257.5,-31.5706"/>
</g>
<!-- Node6 -->
<g id="node11" class="node"><title>Node6</title>
<polygon fill="white" stroke="#bfbfbf" points="296,-0.5 296,-21.5 348,-21.5 348,-0.5 296,-0.5"/>
<text text-anchor="middle" x="322" y="-8.5" font-family="Helvetica,sans-Serif" font-size="10.00">sstream</text>
</g>
<!-- Node1&#45;&gt;Node6 -->
<g id="edge10" class="edge"><title>Node1&#45;&gt;Node6</title>
<path fill="none" stroke="midnightblue" d="M266.472,-58.3619C276.345,-49.9408 290.333,-38.0105 301.798,-28.2308"/>
<polygon fill="midnightblue" stroke="midnightblue" points="304.27,-30.7231 309.607,-21.5707 299.727,-25.3972 304.27,-30.7231"/>
</g>
<!-- Node7 -->
<g id="node13" class="node"><title>Node7</title>
<polygon fill="white" stroke="#bfbfbf" points="365.5,-0.5 365.5,-21.5 414.5,-21.5 414.5,-0.5 365.5,-0.5"/>
<text text-anchor="middle" x="390" y="-8.5" font-family="Helvetica,sans-Serif" font-size="10.00">cassert</text>
</g>
<!-- Node1&#45;&gt;Node7 -->
<g id="edge12" class="edge"><title>Node1&#45;&gt;Node7</title>
<path fill="none" stroke="midnightblue" d="M278.629,-58.4966C300.157,-49.3154 331.64,-35.8889 355.645,-25.6516"/>
<polygon fill="midnightblue" stroke="midnightblue" points="357.27,-28.7636 365.095,-21.6212 354.524,-22.3247 357.27,-28.7636"/>
</g>
<!-- Node8 -->
<g id="node15" class="node"><title>Node8</title>
<polygon fill="white" stroke="#bfbfbf" points="432,-0.5 432,-21.5 476,-21.5 476,-0.5 432,-0.5"/>
<text text-anchor="middle" x="454" y="-8.5" font-family="Helvetica,sans-Serif" font-size="10.00">vector</text>
</g>
<!-- Node1&#45;&gt;Node8 -->
<g id="edge14" class="edge"><title>Node1&#45;&gt;Node8</title>
<path fill="none" stroke="midnightblue" d="M294.87,-58.4889C327.096,-50.0098 373.358,-37.4175 421.963,-22.1968"/>
<polygon fill="midnightblue" stroke="midnightblue" points="423.23,-25.4671 431.712,-19.118 421.122,-18.792 423.23,-25.4671"/>
</g>
</g>
</svg>
