<?xml version="1.0" encoding="UTF-8" standalone="no"?>
<!DOCTYPE svg PUBLIC "-//W3C//DTD SVG 1.1//EN"
 "http://www.w3.org/Graphics/SVG/1.1/DTD/svg11.dtd">
<!-- Generated by graphviz version 2.26.3 (20100126.1600)
 -->
<!-- Title: G Pages: 1 -->
<svg width="430pt" height="510pt"
 viewBox="0.00 0.00 430.00 510.00" xmlns="http://www.w3.org/2000/svg" xmlns:xlink="http://www.w3.org/1999/xlink">
<g id="graph1" class="graph" transform="scale(1 1) rotate(0) translate(4 506)">
<title>G</title>
<polygon fill="white" stroke="white" points="-4,5 -4,-506 427,-506 427,5 -4,5"/>
<!-- Node1 -->
<g id="node1" class="node"><title>Node1</title>
<polygon fill="#bfbfbf" stroke="black" points="0.5,-220.5 0.5,-241.5 77.5,-241.5 77.5,-220.5 0.5,-220.5"/>
<text text-anchor="middle" x="39" y="-228.5" font-family="Helvetica,sans-Serif" font-size="10.00">training_batch</text>
</g>
<!-- Node2 -->
<g id="node3" class="node"><title>Node2</title>
<a xlink:href="namespacelibcnn.html#a022f9a6378aa94ec418eb757bead690e" target="_top" xlink:title="libcnn::data_generation">
<polygon fill="white" stroke="black" points="140.5,-440.5 140.5,-461.5 257.5,-461.5 257.5,-440.5 140.5,-440.5"/>
<text text-anchor="middle" x="199" y="-448.5" font-family="Helvetica,sans-Serif" font-size="10.00">libcnn::data_generation</text>
</a>
</g>
<!-- Node1&#45;&gt;Node2 -->
<g id="edge2" class="edge"><title>Node1&#45;&gt;Node2</title>
<path fill="none" stroke="midnightblue" d="M39.6178,-241.616C42.1575,-275.017 54.6979,-378.824 114,-431 118.93,-435.337 124.624,-438.779 130.684,-441.505"/>
<polygon fill="midnightblue" stroke="midnightblue" points="129.859,-444.936 140.45,-445.225 132.35,-438.394 129.859,-444.936"/>
</g>
<!-- Node5 -->
<g id="node9" class="node"><title>Node5</title>
<a xlink:href="namespacelibcnn.html#a4afdb4ab6bfd2c2167c593900ef644f5" target="_top" xlink:title="libcnn::unit_scaling">
<polygon fill="white" stroke="black" points="149,-400.5 149,-421.5 249,-421.5 249,-400.5 149,-400.5"/>
<text text-anchor="middle" x="199" y="-408.5" font-family="Helvetica,sans-Serif" font-size="10.00">libcnn::unit_scaling</text>
</a>
</g>
<!-- Node1&#45;&gt;Node5 -->
<g id="edge8" class="edge"><title>Node1&#45;&gt;Node5</title>
<path fill="none" stroke="midnightblue" d="M40.6958,-241.525C45.9085,-270.296 64.454,-350.788 114,-391 121.261,-396.893 129.959,-401.108 138.978,-404.11"/>
<polygon fill="midnightblue" stroke="midnightblue" points="138.263,-407.545 148.839,-406.914 140.178,-400.812 138.263,-407.545"/>
</g>
<!-- Node7 -->
<g id="node13" class="node"><title>Node7</title>
<a xlink:href="namespacelibcnn.html#a0f018efe5349302aba6f349d17cc90cf" target="_top" xlink:title="libcnn::label_sampling">
<polygon fill="white" stroke="black" points="142.5,-360.5 142.5,-381.5 255.5,-381.5 255.5,-360.5 142.5,-360.5"/>
<text text-anchor="middle" x="199" y="-368.5" font-family="Helvetica,sans-Serif" font-size="10.00">libcnn::label_sampling</text>
</a>
</g>
<!-- Node1&#45;&gt;Node7 -->
<g id="edge12" class="edge"><title>Node1&#45;&gt;Node7</title>
<path fill="none" stroke="midnightblue" d="M42.4624,-241.607C50.7485,-265.239 74.0568,-322.385 114,-351 119.63,-355.034 125.959,-358.265 132.556,-360.851"/>
<polygon fill="midnightblue" stroke="midnightblue" points="131.77,-364.281 142.364,-364.197 134.03,-357.656 131.77,-364.281"/>
</g>
<!-- Node8 -->
<g id="node15" class="node"><title>Node8</title>
<a xlink:href="namespacelibcnn.html#a449702bcc49494b8e359548d03ba12e3" target="_top" xlink:title="libcnn::rand_conv">
<polygon fill="white" stroke="black" points="152.5,-320.5 152.5,-341.5 245.5,-341.5 245.5,-320.5 152.5,-320.5"/>
<text text-anchor="middle" x="199" y="-328.5" font-family="Helvetica,sans-Serif" font-size="10.00">libcnn::rand_conv</text>
</a>
</g>
<!-- Node1&#45;&gt;Node8 -->
<g id="edge14" class="edge"><title>Node1&#45;&gt;Node8</title>
<path fill="none" stroke="midnightblue" d="M45.8806,-241.697C57.6448,-259.073 83.3472,-293.271 114,-311 122.661,-316.009 132.506,-319.765 142.349,-322.581"/>
<polygon fill="midnightblue" stroke="midnightblue" points="141.591,-326 152.147,-325.095 143.33,-319.219 141.591,-326"/>
</g>
<!-- Node9 -->
<g id="node17" class="node"><title>Node9</title>
<a xlink:href="namespacelibcnn.html#a367a409a55921d3810474a42357ff285" target="_top" xlink:title="libcnn::rand_classifier">
<polygon fill="white" stroke="black" points="143.5,-280.5 143.5,-301.5 254.5,-301.5 254.5,-280.5 143.5,-280.5"/>
<text text-anchor="middle" x="199" y="-288.5" font-family="Helvetica,sans-Serif" font-size="10.00">libcnn::rand_classifier</text>
</a>
</g>
<!-- Node1&#45;&gt;Node9 -->
<g id="edge16" class="edge"><title>Node1&#45;&gt;Node9</title>
<path fill="none" stroke="midnightblue" d="M55.6849,-241.523C70.5064,-250.469 93.0115,-263.087 114,-271 120.729,-273.537 127.883,-275.82 135.073,-277.857"/>
<polygon fill="midnightblue" stroke="midnightblue" points="134.299,-281.273 144.864,-280.482 136.112,-274.512 134.299,-281.273"/>
</g>
<!-- Node10 -->
<g id="node19" class="node"><title>Node10</title>
<a xlink:href="namespacelibcnn.html#a55bbe6e5488b8a038e5708a32d233090" target="_top" xlink:title="libcnn::get_feature_vector">
<polygon fill="white" stroke="black" points="134.5,-240.5 134.5,-261.5 263.5,-261.5 263.5,-240.5 134.5,-240.5"/>
<text text-anchor="middle" x="199" y="-248.5" font-family="Helvetica,sans-Serif" font-size="10.00">libcnn::get_feature_vector</text>
</a>
</g>
<!-- Node1&#45;&gt;Node10 -->
<g id="edge18" class="edge"><title>Node1&#45;&gt;Node10</title>
<path fill="none" stroke="midnightblue" d="M77.7315,-235.841C91.824,-237.603 108.269,-239.659 124.419,-241.677"/>
<polygon fill="midnightblue" stroke="midnightblue" points="124.055,-245.159 134.412,-242.926 124.923,-238.213 124.055,-245.159"/>
</g>
<!-- Node11 -->
<g id="node21" class="node"><title>Node11</title>
<a xlink:href="classlibcnn_1_1_softmax.html#ae6af9e18ce2ab849d26b38a9d4a5be20" target="_top" xlink:title="libcnn::Softmax::calculation_output">
<polygon fill="white" stroke="black" points="114,-200.5 114,-221.5 284,-221.5 284,-200.5 114,-200.5"/>
<text text-anchor="middle" x="199" y="-208.5" font-family="Helvetica,sans-Serif" font-size="10.00">libcnn::Softmax::calculation_output</text>
</a>
</g>
<!-- Node1&#45;&gt;Node11 -->
<g id="edge20" class="edge"><title>Node1&#45;&gt;Node11</title>
<path fill="none" stroke="midnightblue" d="M77.7315,-226.159C86.1058,-225.112 95.3108,-223.961 104.791,-222.776"/>
<polygon fill="midnightblue" stroke="midnightblue" points="105.258,-226.245 114.746,-221.532 104.389,-219.299 105.258,-226.245"/>
</g>
<!-- Node12 -->
<g id="node23" class="node"><title>Node12</title>
<a xlink:href="classlibcnn_1_1_softmax.html#ad52de893453032d29c6fb3bca6e9f492" target="_top" xlink:title="libcnn::Softmax::backprop">
<polygon fill="white" stroke="black" points="133.5,-160.5 133.5,-181.5 264.5,-181.5 264.5,-160.5 133.5,-160.5"/>
<text text-anchor="middle" x="199" y="-168.5" font-family="Helvetica,sans-Serif" font-size="10.00">libcnn::Softmax::backprop</text>
</a>
</g>
<!-- Node1&#45;&gt;Node12 -->
<g id="edge22" class="edge"><title>Node1&#45;&gt;Node12</title>
<path fill="none" stroke="midnightblue" d="M55.6849,-220.477C70.5064,-211.531 93.0115,-198.913 114,-191 120.729,-188.463 127.883,-186.18 135.073,-184.143"/>
<polygon fill="midnightblue" stroke="midnightblue" points="136.112,-187.488 144.864,-181.518 134.299,-180.727 136.112,-187.488"/>
</g>
<!-- Node13 -->
<g id="node25" class="node"><title>Node13</title>
<a xlink:href="namespacelibcnn.html#a78ed8e63be87c4d06bb363af95ce62ec" target="_top" xlink:title="libcnn::softmax2conv">
<polygon fill="white" stroke="black" points="144,-120.5 144,-141.5 254,-141.5 254,-120.5 144,-120.5"/>
<text text-anchor="middle" x="199" y="-128.5" font-family="Helvetica,sans-Serif" font-size="10.00">libcnn::softmax2conv</text>
</a>
</g>
<!-- Node1&#45;&gt;Node13 -->
<g id="edge24" class="edge"><title>Node1&#45;&gt;Node13</title>
<path fill="none" stroke="midnightblue" d="M45.8806,-220.303C57.6448,-202.927 83.3472,-168.729 114,-151 120.225,-147.399 127.062,-144.447 134.07,-142.025"/>
<polygon fill="midnightblue" stroke="midnightblue" points="135.177,-145.346 143.691,-139.041 133.103,-138.66 135.177,-145.346"/>
</g>
<!-- Node14 -->
<g id="node27" class="node"><title>Node14</title>
<a xlink:href="classlibcnn_1_1_pool.html#a7971925b58312b01b92402f6991460cd" target="_top" xlink:title="libcnn::Pool::back_prop">
<polygon fill="white" stroke="black" points="139.5,-80.5 139.5,-101.5 258.5,-101.5 258.5,-80.5 139.5,-80.5"/>
<text text-anchor="middle" x="199" y="-88.5" font-family="Helvetica,sans-Serif" font-size="10.00">libcnn::Pool::back_prop</text>
</a>
</g>
<!-- Node1&#45;&gt;Node14 -->
<g id="edge26" class="edge"><title>Node1&#45;&gt;Node14</title>
<path fill="none" stroke="midnightblue" d="M42.4624,-220.393C50.7485,-196.761 74.0568,-139.615 114,-111 118.816,-107.55 124.142,-104.687 129.711,-102.313"/>
<polygon fill="midnightblue" stroke="midnightblue" points="131.111,-105.526 139.264,-98.7602 128.671,-98.9652 131.111,-105.526"/>
</g>
<!-- Node15 -->
<g id="node29" class="node"><title>Node15</title>
<a xlink:href="classlibcnn_1_1_conv_pool_layer.html#ab74a2227a84ff1de545dd1e69f0c8fb3" target="_top" xlink:title="libcnn::ConvPoolLayer::back_prop">
<polygon fill="white" stroke="black" points="116,-40.5 116,-61.5 282,-61.5 282,-40.5 116,-40.5"/>
<text text-anchor="middle" x="199" y="-48.5" font-family="Helvetica,sans-Serif" font-size="10.00">libcnn::ConvPoolLayer::back_prop</text>
</a>
</g>
<!-- Node1&#45;&gt;Node15 -->
<g id="edge28" class="edge"><title>Node1&#45;&gt;Node15</title>
<path fill="none" stroke="midnightblue" d="M40.6958,-220.475C45.9085,-191.704 64.454,-111.212 114,-71 116.06,-69.3282 118.235,-67.7914 120.501,-66.3792"/>
<polygon fill="midnightblue" stroke="midnightblue" points="122.445,-69.3097 129.633,-61.5263 119.16,-63.1283 122.445,-69.3097"/>
</g>
<!-- Node16 -->
<g id="node31" class="node"><title>Node16</title>
<a xlink:href="namespacelibcnn.html#aa0d2c742374c714e8acadc2f2768db9e" target="_top" xlink:title="libcnn::save">
<polygon fill="white" stroke="black" points="164.5,-0.5 164.5,-21.5 233.5,-21.5 233.5,-0.5 164.5,-0.5"/>
<text text-anchor="middle" x="199" y="-8.5" font-family="Helvetica,sans-Serif" font-size="10.00">libcnn::save</text>
</a>
</g>
<!-- Node1&#45;&gt;Node16 -->
<g id="edge30" class="edge"><title>Node1&#45;&gt;Node16</title>
<path fill="none" stroke="midnightblue" d="M39.6178,-220.384C42.1575,-186.983 54.6979,-83.1756 114,-31 124.99,-21.3303 139.783,-16.1098 153.947,-13.3578"/>
<polygon fill="midnightblue" stroke="midnightblue" points="154.751,-16.7744 164.085,-11.7619 153.662,-9.85955 154.751,-16.7744"/>
</g>
<!-- Node3 -->
<g id="node5" class="node"><title>Node3</title>
<a xlink:href="gpu_2include_2load__data_8h.html#a39a205061173088b2222b1d550a8787c" target="_top" xlink:title="read_image_files">
<polygon fill="white" stroke="black" points="326,-480.5 326,-501.5 416,-501.5 416,-480.5 326,-480.5"/>
<text text-anchor="middle" x="371" y="-488.5" font-family="Helvetica,sans-Serif" font-size="10.00">read_image_files</text>
</a>
</g>
<!-- Node2&#45;&gt;Node3 -->
<g id="edge4" class="edge"><title>Node2&#45;&gt;Node3</title>
<path fill="none" stroke="midnightblue" d="M244.191,-461.51C266.127,-466.611 292.673,-472.785 315.798,-478.162"/>
<polygon fill="midnightblue" stroke="midnightblue" points="315.28,-481.635 325.813,-480.491 316.865,-474.817 315.28,-481.635"/>
</g>
<!-- Node4 -->
<g id="node7" class="node"><title>Node4</title>
<a xlink:href="gpu_2include_2load__data_8h.html#a8f84dc0bbc3acab545f50ce4899348e3" target="_top" xlink:title="read_label_files">
<polygon fill="white" stroke="black" points="329,-440.5 329,-461.5 413,-461.5 413,-440.5 329,-440.5"/>
<text text-anchor="middle" x="371" y="-448.5" font-family="Helvetica,sans-Serif" font-size="10.00">read_label_files</text>
</a>
</g>
<!-- Node2&#45;&gt;Node4 -->
<g id="edge6" class="edge"><title>Node2&#45;&gt;Node4</title>
<path fill="none" stroke="midnightblue" d="M257.712,-451C277.51,-451 299.461,-451 318.728,-451"/>
<polygon fill="midnightblue" stroke="midnightblue" points="318.828,-454.5 328.828,-451 318.828,-447.5 318.828,-454.5"/>
</g>
<!-- Node6 -->
<g id="node11" class="node"><title>Node6</title>
<a xlink:href="namespacelibcnn.html#ab161d6e7087d097f72c086587a661c4a" target="_top" xlink:title="libcnn::normalize">
<polygon fill="white" stroke="black" points="326,-400.5 326,-421.5 416,-421.5 416,-400.5 326,-400.5"/>
<text text-anchor="middle" x="371" y="-408.5" font-family="Helvetica,sans-Serif" font-size="10.00">libcnn::normalize</text>
</a>
</g>
<!-- Node5&#45;&gt;Node6 -->
<g id="edge10" class="edge"><title>Node5&#45;&gt;Node6</title>
<path fill="none" stroke="midnightblue" d="M249.212,-411C270.004,-411 294.192,-411 315.508,-411"/>
<polygon fill="midnightblue" stroke="midnightblue" points="315.714,-414.5 325.714,-411 315.714,-407.5 315.714,-414.5"/>
</g>
<!-- Node17 -->
<g id="node33" class="node"><title>Node17</title>
<a xlink:href="namespacelibcnn.html#ab9d1cc7fff65924fba4673d248ce5b84" target="_top" xlink:title="libcnn::write_binary">
<polygon fill="white" stroke="black" points="320.5,-0.5 320.5,-21.5 421.5,-21.5 421.5,-0.5 320.5,-0.5"/>
<text text-anchor="middle" x="371" y="-8.5" font-family="Helvetica,sans-Serif" font-size="10.00">libcnn::write_binary</text>
</a>
</g>
<!-- Node16&#45;&gt;Node17 -->
<g id="edge32" class="edge"><title>Node16&#45;&gt;Node17</title>
<path fill="none" stroke="midnightblue" d="M233.807,-11C255.731,-11 284.635,-11 310.257,-11"/>
<polygon fill="midnightblue" stroke="midnightblue" points="310.263,-14.5001 320.263,-11 310.263,-7.5001 310.263,-14.5001"/>
</g>
</g>
</svg>
