<?xml version="1.0" encoding="UTF-8" standalone="no"?>
<!DOCTYPE svg PUBLIC "-//W3C//DTD SVG 1.1//EN"
 "http://www.w3.org/Graphics/SVG/1.1/DTD/svg11.dtd">
<!-- Generated by graphviz version 2.26.3 (20100126.1600)
 -->
<!-- Title: G Pages: 1 -->
<svg width="242pt" height="79pt"
 viewBox="0.00 0.00 242.00 79.00" xmlns="http://www.w3.org/2000/svg" xmlns:xlink="http://www.w3.org/1999/xlink">
<g id="graph1" class="graph" transform="scale(1 1) rotate(0) translate(4 75)">
<title>G</title>
<polygon fill="white" stroke="white" points="-4,5 -4,-75 239,-75 239,5 -4,5"/>
<!-- Node1 -->
<g id="node1" class="node"><title>Node1</title>
<polygon fill="#bfbfbf" stroke="black" points="0,-20.5 0,-41.5 38,-41.5 38,-20.5 0,-20.5"/>
<text text-anchor="middle" x="19" y="-28.5" font-family="Helvetica,sans-Serif" font-size="10.00">main</text>
</g>
<!-- Node2 -->
<g id="node3" class="node"><title>Node2</title>
<a xlink:href="gtest__softmax_8cpp.html#a15e6c82d14b7cde034d53e566fd2ff8e" target="_top" xlink:title="parser_yaml_para">
<polygon fill="white" stroke="black" points="74,-20.5 74,-41.5 168,-41.5 168,-20.5 74,-20.5"/>
<text text-anchor="middle" x="121" y="-28.5" font-family="Helvetica,sans-Serif" font-size="10.00">parser_yaml_para</text>
</a>
</g>
<!-- Node1&#45;&gt;Node2 -->
<g id="edge2" class="edge"><title>Node1&#45;&gt;Node2</title>
<path fill="none" stroke="midnightblue" d="M38.1854,-31C45.6443,-31 54.6148,-31 63.8584,-31"/>
<polygon fill="midnightblue" stroke="midnightblue" points="63.9373,-34.5001 73.9373,-31 63.9373,-27.5001 63.9373,-34.5001"/>
</g>
<!-- Node3 -->
<g id="node5" class="node"><title>Node3</title>
<a xlink:href="test_2yaml__t__load_8cpp.html#a600eac78667d5a813045d8ef2f4395dd" target="_top" xlink:title="d">
<polygon fill="white" stroke="black" points="204.5,-49.5 204.5,-70.5 233.5,-70.5 233.5,-49.5 204.5,-49.5"/>
<text text-anchor="middle" x="219" y="-57.5" font-family="Helvetica,sans-Serif" font-size="10.00">d</text>
</a>
</g>
<!-- Node1&#45;&gt;Node3 -->
<g id="edge8" class="edge"><title>Node1&#45;&gt;Node3</title>
<path fill="none" stroke="midnightblue" d="M38.2037,-39.5219C48.5908,-43.7348 61.7654,-48.4513 74,-51 115.6,-59.666 165.246,-60.8236 194.331,-60.6022"/>
<polygon fill="midnightblue" stroke="midnightblue" points="194.461,-64.1009 204.411,-60.4626 194.364,-57.1015 194.461,-64.1009"/>
</g>
<!-- Node4 -->
<g id="node7" class="node"><title>Node4</title>
<a xlink:href="test_2yaml__t__load_8cpp.html#a80d599bd22867a8e610e0be09bf1128d" target="_top" xlink:title="v">
<polygon fill="white" stroke="black" points="204.5,-0.5 204.5,-21.5 233.5,-21.5 233.5,-0.5 204.5,-0.5"/>
<text text-anchor="middle" x="219" y="-8.5" font-family="Helvetica,sans-Serif" font-size="10.00">v</text>
</a>
</g>
<!-- Node1&#45;&gt;Node4 -->
<g id="edge10" class="edge"><title>Node1&#45;&gt;Node4</title>
<path fill="none" stroke="midnightblue" d="M38.1445,-22.1701C48.5148,-17.87 61.6923,-13.1683 74,-11 115.768,-3.64145 165.361,-5.9684 194.39,-8.41963"/>
<polygon fill="midnightblue" stroke="midnightblue" points="194.17,-11.9141 204.449,-9.34524 194.812,-4.94359 194.17,-11.9141"/>
</g>
<!-- Node2&#45;&gt;Node3 -->
<g id="edge4" class="edge"><title>Node2&#45;&gt;Node3</title>
<path fill="none" stroke="midnightblue" d="M156.657,-41.5517C169.312,-45.2963 183.251,-49.4211 194.734,-52.8191"/>
<polygon fill="midnightblue" stroke="midnightblue" points="193.899,-56.2222 204.481,-55.7036 195.885,-49.5099 193.899,-56.2222"/>
</g>
<!-- Node2&#45;&gt;Node4 -->
<g id="edge6" class="edge"><title>Node2&#45;&gt;Node4</title>
<path fill="none" stroke="midnightblue" d="M168.278,-21.3515C177.296,-19.511 186.392,-17.6546 194.342,-16.0322"/>
<polygon fill="midnightblue" stroke="midnightblue" points="195.26,-19.4171 204.358,-13.9881 193.86,-12.5585 195.26,-19.4171"/>
</g>
</g>
</svg>
