<?xml version="1.0" encoding="UTF-8" standalone="no"?>
<!DOCTYPE svg PUBLIC "-//W3C//DTD SVG 1.1//EN"
 "http://www.w3.org/Graphics/SVG/1.1/DTD/svg11.dtd">
<!-- Generated by graphviz version 2.26.3 (20100126.1600)
 -->
<!-- Title: G Pages: 1 -->
<svg width="168pt" height="70pt"
 viewBox="0.00 0.00 168.00 70.00" xmlns="http://www.w3.org/2000/svg" xmlns:xlink="http://www.w3.org/1999/xlink">
<g id="graph1" class="graph" transform="scale(1 1) rotate(0) translate(4 66)">
<title>G</title>
<polygon fill="white" stroke="white" points="-4,5 -4,-66 165,-66 165,5 -4,5"/>
<!-- Node1 -->
<g id="node1" class="node"><title>Node1</title>
<polygon fill="#bfbfbf" stroke="black" points="0,-20.5 0,-41.5 94,-41.5 94,-20.5 0,-20.5"/>
<text text-anchor="middle" x="47" y="-28.5" font-family="Helvetica,sans-Serif" font-size="10.00">parser_yaml_para</text>
</g>
<!-- Node2 -->
<g id="node3" class="node"><title>Node2</title>
<a xlink:href="test_2yaml__t__load_8cpp.html#a600eac78667d5a813045d8ef2f4395dd" target="_top" xlink:title="d">
<polygon fill="white" stroke="black" points="130.5,-40.5 130.5,-61.5 159.5,-61.5 159.5,-40.5 130.5,-40.5"/>
<text text-anchor="middle" x="145" y="-48.5" font-family="Helvetica,sans-Serif" font-size="10.00">d</text>
</a>
</g>
<!-- Node1&#45;&gt;Node2 -->
<g id="edge2" class="edge"><title>Node1&#45;&gt;Node2</title>
<path fill="none" stroke="midnightblue" d="M94.2777,-40.6485C103.296,-42.489 112.392,-44.3454 120.342,-45.9678"/>
<polygon fill="midnightblue" stroke="midnightblue" points="119.86,-49.4415 130.358,-48.0119 121.26,-42.5829 119.86,-49.4415"/>
</g>
<!-- Node3 -->
<g id="node5" class="node"><title>Node3</title>
<a xlink:href="test_2yaml__t__load_8cpp.html#a80d599bd22867a8e610e0be09bf1128d" target="_top" xlink:title="v">
<polygon fill="white" stroke="black" points="130.5,-0.5 130.5,-21.5 159.5,-21.5 159.5,-0.5 130.5,-0.5"/>
<text text-anchor="middle" x="145" y="-8.5" font-family="Helvetica,sans-Serif" font-size="10.00">v</text>
</a>
</g>
<!-- Node1&#45;&gt;Node3 -->
<g id="edge4" class="edge"><title>Node1&#45;&gt;Node3</title>
<path fill="none" stroke="midnightblue" d="M94.2777,-21.3515C103.296,-19.511 112.392,-17.6546 120.342,-16.0322"/>
<polygon fill="midnightblue" stroke="midnightblue" points="121.26,-19.4171 130.358,-13.9881 119.86,-12.5585 121.26,-19.4171"/>
</g>
</g>
</svg>
